<?xml version="1.0" encoding="utf-8"?>
<!-- Generator: Adobe Illustrator 22.0.0, SVG Export Plug-In . SVG Version: 6.00 Build 0)  -->
<svg version="1.1" id="Layer_1" xmlns="http://www.w3.org/2000/svg" xmlns:xlink="http://www.w3.org/1999/xlink" x="0px" y="0px"
	 viewBox="0 0 425.2 425.2" style="enable-background:new 0 0 425.2 425.2;" xml:space="preserve">
<style type="text/css">
	.st0{fill:#0C153B;}
</style>
<g>
	<path class="st0" d="M308.2,395.9c-60.8,0-122.5-0.3-183.3-0.3c-3.5-0.8-6.1-1-9.5-2c-21.9-6.6-36.9-26.6-37-49.7
		c-0.2-24-0.1-48.1-0.1-72.1c0-1.3,0-2.6,0-4.2c-2.2-0.2-3.9-0.3-5.7-0.4c-23.4-1.8-43.8-19.4-48.9-42.2c-1.7-11.9-1.1-18.1-1-18.7
		c1.2-12.9,6.8-23.6,15.8-32.7C84.9,127,131.4,80.5,178,34.1c7-7,15.3-11.8,24.9-14.1c2.6-0.6,14.9-1.6,21.6-1.2
		c9.6,1,24.2,7.7,33.5,17.1c8.4,8.6,17,17,25.5,25.5c0.7,0.7,1.6,1.4,2.3,2.1c7-7.8,11.2-9.7,21.4-9.7c5.9,0,11.8-0.1,17.7,0
		c13.3,0.1,22.6,9.5,22.6,22.8c0,15.3,0,30.5,0,45.8c0,2.2,0.6,3.7,2.2,5.2c14.9,14.7,29.7,29.5,44.5,44.3c7.7,7.7,20,22.9,16.9,48
		s-25,45.6-51.2,47c-3.3,0.2-4.4,1.2-4.3,4.5c0.1,24.3,0.1,48.5,0.1,72.8c-0.1,23.5-16.9,44.6-39.7,50
		C313.4,394.9,310.8,395.4,308.2,395.9z M249.2,314.5L249.2,314.5c0.1-5.3,0-10.7,0.1-16c0.2-9.6-3.7-17.2-11.2-23
		c-7.9-6-16.6-8.1-26.4-6.5c-15.3,2.4-25.9,12.7-26.6,27.5c-0.6,12.1-0.3,24.2-0.1,36.4c0.1,6.4,2.5,12.2,6.9,16.9
		c8.1,8.7,18.3,11.9,29.9,10.7c14.3-1.5,26.1-12.5,27.3-26.2C249.7,327.7,249.2,321.1,249.2,314.5z"/>
</g>
</svg>
