<?xml version="1.0" encoding="utf-8"?>
<!-- Generator: Adobe Illustrator 22.0.0, SVG Export Plug-In . SVG Version: 6.00 Build 0)  -->
<svg version="1.1" id="Layer_1" xmlns="http://www.w3.org/2000/svg" xmlns:xlink="http://www.w3.org/1999/xlink" x="0px" y="0px"
	 viewBox="0 0 425.2 540.2" style="enable-background:new 0 0 425.2 540.2;" xml:space="preserve">
<style type="text/css">
	.st0{fill:#FFFFFF;}
</style>
<g>
	<path class="st0" d="M305.4,385.9c-60.8,0-122.5-0.3-183.3-0.3c-3.5-0.8-6.1-1-9.5-2c-21.9-6.6-36.9-26.6-37-49.7
		c-0.2-24-0.1-48.1-0.1-72.1c0-1.3,0-2.6,0-4.2c-2.2-0.2-3.9-0.3-5.7-0.4C46.4,255.4,26,237.8,20.9,215c-1.7-11.9-1.1-18.1-1-18.7
		c1.2-12.9,6.8-23.6,15.8-32.7C82.1,117,128.6,70.5,175.2,24.1c7-7,15.3-11.8,24.9-14.1c2.6-0.6,14.9-1.6,21.6-1.2
		c9.6,1,24.2,7.7,33.5,17.1c8.4,8.6,17,17,25.5,25.5c0.7,0.7,1.6,1.4,2.3,2.1c7-7.8,11.2-9.7,21.4-9.7c5.9,0,11.8-0.1,17.7,0
		c13.3,0.1,22.6,9.5,22.6,22.8c0,15.3,0,30.5,0,45.8c0,2.2,0.6,3.7,2.2,5.2c14.9,14.7,29.7,29.5,44.5,44.3c7.7,7.7,20,22.9,16.9,48
		s-25,45.6-51.2,47c-3.3,0.2-4.4,1.2-4.3,4.5c0.1,24.3,0.1,48.5,0.1,72.8c-0.1,23.5-16.9,44.6-39.7,50
		C310.6,384.9,308,385.4,305.4,385.9z M246.4,304.5L246.4,304.5c0.1-5.3,0-10.7,0.1-16c0.2-9.6-3.7-17.2-11.2-23
		c-7.9-6-16.6-8.1-26.4-6.5c-15.3,2.4-25.9,12.7-26.6,27.5c-0.6,12.1-0.3,24.2-0.1,36.4c0.1,6.4,2.5,12.2,6.9,16.9
		c8.1,8.7,18.3,11.9,29.9,10.7c14.3-1.5,26.1-12.5,27.3-26.2C246.9,317.7,246.4,311.1,246.4,304.5z"/>
</g>
<g>
	<path class="st0" d="M202.3,439.5c-1.9,0-3.3-0.3-4.2-0.8c-0.4-0.3-2-1.6-4.6-4c-1.7,3.5-4.3,5.3-8,5.3c-2.4,0-4.4-0.8-6-2.4
		c-1.6-1.6-2.4-3.6-2.4-6c0-2.5,1.7-5.5,5.1-8.9l-1.2-1.4l3-3l13.2,14c1.2,1.2,1.9,1.9,2.2,2.1c0.6,0.4,1.6,0.6,3,0.7V439.5z
		 M189.7,431.9c0-1.1-0.3-1.9-0.8-2.4l-3.5-3.5c-1.4,1.3-2.2,2.1-2.6,2.6c-0.9,1.1-1.3,2.2-1.3,3.3c0,1.1,0.4,2.1,1.1,2.8
		c0.8,0.7,1.7,1.1,2.9,1.1c1.1,0,2.1-0.4,2.9-1.1C189.3,433.9,189.7,433,189.7,431.9z"/>
	<path class="st0" d="M214.1,432.3c0,1.9-0.6,3.5-1.8,4.9c-1.2,1.5-2.8,2.2-4.6,2.2h-7.2v-4.4c4.6,0,7.2-0.1,7.7-0.3
		c1-0.4,1.5-1.7,1.5-4c0-0.6,0-1.4,0-2.6s0-2,0-2.6h4.5V432.3z M209.8,418.8c0,0.9-0.3,1.6-0.9,2.2c-0.6,0.6-1.3,0.9-2.2,0.9
		c-2.2,0-3.3-1-3.3-3.1c0-1.7,1.1-2.6,3.2-2.6C208.7,416.1,209.8,417,209.8,418.8z"/>
	<path class="st0" d="M228.1,439.5c-3.7,0-6.3-0.7-7.8-2.1c-1-0.9-1.5-2.4-1.5-4.6V412h4.4v18.8c0,2,0.3,3.3,1,3.7
		c0.4,0.3,1.7,0.4,3.9,0.5V439.5z"/>
	<path class="st0" d="M251.5,431l-10.1,5.7c-2.4,1.4-4.8,2.2-7.4,2.5c-1.3,0.2-3.9,0.2-7.9,0.2v-4.4c5.7,0,9.7-0.6,12-1.7
		c0.2-0.1,1.2-0.6,3.2-1.7c1.2-0.7,3-1.7,5.4-3c-0.6-1.2-1.5-2-2.8-2.3c-0.6-0.1-1.9-0.2-3.9-0.2h-7.7l-0.6-4.4h10.8
		C248.5,421.9,251.5,424.9,251.5,431z M243,414c0,0.8-0.3,1.5-0.9,2.1c-0.6,0.6-1.3,0.9-2.1,0.9c-2.2,0-3.3-1-3.3-3.1
		c0-1.8,1.1-2.6,3.2-2.6C242,411.4,243,412.3,243,414z"/>
</g>
</svg>
