<?xml version="1.0" encoding="utf-8"?>
<!-- Generator: Adobe Illustrator 22.0.0, SVG Export Plug-In . SVG Version: 6.00 Build 0)  -->
<svg version="1.1" id="Layer_1" xmlns="http://www.w3.org/2000/svg" xmlns:xlink="http://www.w3.org/1999/xlink" x="0px" y="0px"
	 viewBox="0 0 283.5 283.5" style="enable-background:new 0 0 283.5 283.5;" xml:space="preserve">
<style type="text/css">
	.st0{fill:#E52421;}
</style>
<path class="st0" d="M266.2,90.3c-7.9-30-27.1-49.1-57.1-56.4c-21.6-5.3-41.8-0.9-60.2,11.7c-1.9,1.3-3.2,1.4-5.2,0
	c-28-19.5-64.6-18.3-91.1,3C37.8,60.6,29,76.3,25.9,95.2c-0.3,2.1-0.7,4.2-1,6.3c0,3.8,0,7.6,0,11.4c0.5,3.2,0.9,6.5,1.6,9.7
	c3,14.4,9.2,27.1,19.6,37.6c32.7,32.8,65.4,65.5,98.2,98.2c0.7,0.7,1.4,1.4,2.4,2.3c0.9-1,1.5-1.8,2.2-2.6
	c32.9-32.9,65.9-65.8,98.7-98.8c9.2-9.3,15.1-20.6,18.2-33.2c1.2-5.2,1.8-10.5,2.6-15.8c0-2.1,0-4.2,0-6.2
	C267.7,99.5,267.4,94.8,266.2,90.3z"/>
</svg>
