<?xml version="1.0" encoding="utf-8"?>
<!-- Generator: Adobe Illustrator 22.0.0, SVG Export Plug-In . SVG Version: 6.00 Build 0)  -->
<svg version="1.1" id="Layer_1" xmlns="http://www.w3.org/2000/svg" xmlns:xlink="http://www.w3.org/1999/xlink" x="0px" y="0px"
	 viewBox="0 0 283.5 283.5" style="enable-background:new 0 0 283.5 283.5;" xml:space="preserve">
<style type="text/css">
	.st0{fill:#7A7A7A;}
</style>
<g>
	<path class="st0" d="M268.4,115.6c-0.9,5.3-1.4,10.6-2.6,15.8c-3.1,12.7-8.9,23.9-18.2,33.2c-32.9,33-65.8,65.9-98.7,98.8
		c-0.7,0.7-1.4,1.6-2.2,2.6c-1-0.9-1.7-1.6-2.4-2.3C111.5,231,78.7,198.3,46,165.5c-10.4-10.4-16.6-23.2-19.6-37.6
		c-0.7-3.2-1.1-6.4-1.6-9.7c0-3.8,0-7.6,0-11.4c0.3-2.1,0.7-4.2,1-6.3C29,81.6,37.8,65.9,52.7,54c26.6-21.4,63.1-22.5,91.1-3
		c2,1.4,3.2,1.3,5.2,0c18.3-12.6,38.6-17,60.2-11.7c30,7.4,49.2,26.4,57.1,56.4c1.2,4.5,1.5,9.2,2.1,13.8
		C268.4,111.5,268.4,113.6,268.4,115.6z M146.2,66.9c-0.6-0.5-1.3-1-1.9-1.6c-10-8.8-21.4-14.5-34.6-16.3
		c-19.1-2.5-36.3,1.9-51,14.4c-17,14.5-24.4,33.3-22.4,55.6c1.3,14.6,7,27.5,17.2,37.9c28.9,29.3,58,58.4,87.1,87.6
		c1.9,1.9,3.8,3.8,5.7,5.7c0.6-0.6,1.2-1,1.6-1.5c23.5-23.5,47-46.9,70.4-70.5c8.4-8.5,16.8-17,24.5-26c16.3-19.2,18.8-47.7,6.7-70
		c-18.1-33.2-60.4-44.1-92.3-23.6C153.5,61,150,64,146.2,66.9z"/>
</g>
</svg>
