<?xml version="1.0" encoding="utf-8"?>
<!-- Generator: Adobe Illustrator 22.0.0, SVG Export Plug-In . SVG Version: 6.00 Build 0)  -->
<svg version="1.1" id="Layer_1" xmlns="http://www.w3.org/2000/svg" xmlns:xlink="http://www.w3.org/1999/xlink" x="0px" y="0px"
	 viewBox="0 0 141.7 141.7" style="enable-background:new 0 0 141.7 141.7;" xml:space="preserve">
<style type="text/css">
	.st0{fill:#FFFFFF;}
</style>
<g>
	<path class="st0" d="M122.3,19.5H20.6c-5.5,0-10,4.5-10,10v68.1c0,5.5,4.5,10,10,10h101.8c5.5,0,10-4.5,10-10V29.5
		C132.3,24,127.8,19.5,122.3,19.5z M90.8,67.1c-1,1-2.3,1.8-3.5,2.5c-8.9,5.1-17.7,10.3-26.6,15.3c-1.9,1.1-3.9,1.5-5.9,0.3
		c-1.7-1.1-2.4-2.7-2.6-4.6C52,78.4,52,76.2,52,74.1c0-3.6,0-7.1,0-10.7c0-4.8,0-9.7,0-14.5c0-1.3,0.2-2.5,0.5-3.7
		c0.9-3.2,3.5-4.6,6.6-3.6c1.2,0.4,2.3,1,3.4,1.6c8.7,5,17.4,10,26.1,15.1c0.8,0.5,1.6,1.1,2.2,1.7C93,62.1,93,65,90.8,67.1z"/>
	<path class="st0" d="M47,125.7c-13.5,0-22.4,0-35.9,0c-2.1,0-2.4-0.3-2.4-2.3c0-0.3,0-0.5,0-0.8c0-1.7,0.4-2,2.1-2
		c6.9,0,9.2,0,16.1,0c20.2,0,40.4,0,60.7,0c1,0,1.6-0.2,2.2-1.1c2.7-4.3,9-4.3,11.6,0.1c0.5,0.8,1,1,1.9,1c11.4,0,16.8,0,28.3,0
		c2.5,0,2.6,0.1,2.6,2.8c0,2.1-0.4,2.4-2.7,2.4c-10.2,0-14.4,0-24.7,0c-0.4,0-0.9,0-1.3,0c-2-0.1-3.5,0.1-5.1,2
		c-2.9,3.6-8.4,2.8-10.9-1.1c-0.3-0.4-0.9-0.8-1.4-0.8c-10.2-0.1-20.3-0.1-30.5-0.1C54.1,125.7,50.6,125.7,47,125.7z"/>
</g>
</svg>
