<?xml version="1.0" encoding="utf-8"?>
<!-- Generator: Adobe Illustrator 22.0.0, SVG Export Plug-In . SVG Version: 6.00 Build 0)  -->
<svg version="1.1" id="Layer_1" xmlns="http://www.w3.org/2000/svg" xmlns:xlink="http://www.w3.org/1999/xlink" x="0px" y="0px"
	 viewBox="0 0 425.2 425.2" style="enable-background:new 0 0 425.2 425.2;" xml:space="preserve">
<style type="text/css">
	.st0{fill:#0C153B;}
</style>
<g>
	<path class="st0" d="M350.2,382.3c-8.5,1.1-110,1-248.4-0.2c-4.5-0.6-8.4-2.4-11.1-7c-3.3-5.8-2.8-13.2-2.8-13.2s0-126.1,0-189.2
		c0-1.2,0-2.4,0-3.8c1.7,0,2.9,0,4.2,0c89.4,0,178.8,0,268.2,0c1.3,0,2.5,0,3.8,0c0,66.9,0,133.7,0,200.6c-0.2,1.2-1,5.5-4.8,8.9
		C359.4,378.4,355.9,381.6,350.2,382.3z M184.1,275.7c0,6.2,0,12.4,0,18.6c0,6.9-0.1,13.8,0,20.6c0.2,7.8,6.7,11.7,13.2,7.9
		c22-13.1,44-26.2,66-39.3c6.4-3.8,6.3-11.7-0.1-15.6c-3.8-2.3-7.6-4.6-11.5-6.8c-18-10.7-36.1-21.4-54.1-32.2
		c-2.9-1.8-5.9-2.5-9-0.7c-3.7,2-4.7,5.4-4.7,9.3C184.1,250.2,184.1,262.9,184.1,275.7z"/>
	<path class="st0" d="M343.8,38.1c3.5,14.5,7,28.9,10.5,43.4c0.2,0.7,0.4,1.5,0.6,2.5c-0.7,0.2-1.4,0.5-2.1,0.7
		c-11.2,2.9-22.5,5.7-33.7,8.7c-2,0.5-3.1,0.1-4.4-1.4c-10.9-12.6-21.9-25.1-33.2-37.9c6.5-1.7,12.6-3.2,18.7-4.8
		c13.8-3.5,27.5-7,41.3-10.5c0.4-0.1,0.8-0.4,1.3-0.6C343.1,38.1,343.4,38.1,343.8,38.1z"/>
	<path class="st0" d="M75.8,106.1c11.1-2.8,22.3-5.6,33.4-8.5c2.1-0.5,3.3-0.2,4.7,1.4c10.3,11.8,20.7,23.6,31,35.4
		c0.6,0.7,1.2,1.5,2,2.5C126.8,142,107,147,86.8,152.2c-1-4-1.9-7.9-2.9-11.8c-2.5-10.5-5-21-7.6-31.5c-0.1-0.6-0.4-1.1-0.6-1.6
		C75.8,106.9,75.8,106.5,75.8,106.1z"/>
	<path class="st0" d="M296.6,98.9c-17.9,4.5-35.7,9.1-53.4,13.5c-0.8,0.2-2.2-0.2-2.7-0.8c-11.2-12.6-22.3-25.3-33.3-38
		c-0.1-0.1-0.1-0.3-0.2-0.8c6.4-1.6,12.7-3.3,19.1-4.9c11.3-2.9,22.7-5.7,34-8.5c0.9-0.2,2.5-0.1,3,0.6
		c11.2,12.7,22.3,25.5,33.5,38.3C296.5,98.4,296.5,98.5,296.6,98.9z"/>
	<path class="st0" d="M131.7,92c18.1-4.6,35.7-9.1,53.4-13.6c0.9-0.2,2.4,0.2,3,0.9c11.2,12.7,22.4,25.4,33.9,38.5
		c-4.3,1.1-8.3,2.2-12.2,3.2c-13.7,3.5-27.3,6.9-41,10.3c-1,0.3-2.8-0.1-3.4-0.8c-10.9-12.3-21.8-24.7-32.6-37
		C132.4,93.1,132.2,92.7,131.7,92z"/>
</g>
</svg>
