<?xml version="1.0" encoding="utf-8"?>
<!-- Generator: Adobe Illustrator 22.0.0, SVG Export Plug-In . SVG Version: 6.00 Build 0)  -->
<svg version="1.1" id="Layer_1" xmlns="http://www.w3.org/2000/svg" xmlns:xlink="http://www.w3.org/1999/xlink" x="0px" y="0px"
	 viewBox="0 0 283.5 283.5" style="enable-background:new 0 0 283.5 283.5;" xml:space="preserve">
<style type="text/css">
	.st0{fill:#FFFFFF;}
</style>
<g>
	<path class="st0" d="M67.5,259.1c0-36.7,0-72.9,0-109.3c3.7,0,7.3,0,11.2,0c0,32.6,0,65,0,97.6c21.6,0,42.9,0,64.4,0
		c0-70.2,0-140.2,0-210.5c-21.4,0-42.7,0-64.3,0c0,32.3,0,64.5,0,97c-3.8,0-7.4,0-11.2,0c0-36,0-72,0-108.5c1.1,0,2.2,0,3.4,0
		c22.6,0,45.3,0,67.9,0c4.2,0,4.2,0,4.4-4.1c0-0.4,0.1-0.7,0.2-1.4c27.9,6.9,55.7,13.7,83.7,20.6c0,67.8,0,135.5,0,203.6
		c-27.8,7.9-55.7,15.8-83.9,23.8c0-3.1,0-5.9,0-8.9C117.8,259.1,92.8,259.1,67.5,259.1z M174.8,146.6c0-1.9,0-3.6,0-5.3
		c-6.8,0-13.3,0-20,0c0,1.8,0,3.5,0,5.3C161.5,146.6,168,146.6,174.8,146.6z"/>
	<path class="st0" d="M40.8,137.6h40.9v-11.3l17.5,16c0,0-11.5,10.3-17.5,15.8c0-3.2,0-11.3,0-11.3l-40.9,0V137.6z"/>
</g>
</svg>
