<?xml version="1.0" encoding="utf-8"?>
<!-- Generator: Adobe Illustrator 22.0.0, SVG Export Plug-In . SVG Version: 6.00 Build 0)  -->
<svg version="1.1" id="Layer_1" xmlns="http://www.w3.org/2000/svg" xmlns:xlink="http://www.w3.org/1999/xlink" x="0px" y="0px"
	 viewBox="0 0 283.5 347.5" style="enable-background:new 0 0 283.5 347.5;" xml:space="preserve">
<style type="text/css">
	.st0{fill:#FFFFFF;}
</style>
<g>
	<path class="st0" d="M66.6,259.1c0-36.7,0-72.9,0-109.3c3.7,0,7.3,0,11.2,0c0,32.6,0,65,0,97.6c21.6,0,42.9,0,64.4,0
		c0-70.2,0-140.2,0-210.5c-21.4,0-42.7,0-64.3,0c0,32.3,0,64.5,0,97c-3.8,0-7.4,0-11.2,0c0-36,0-72,0-108.5c1.1,0,2.2,0,3.4,0
		c22.6,0,45.3,0,67.9,0c4.2,0,4.2,0,4.4-4.1c0-0.4,0.1-0.7,0.2-1.4c27.9,6.9,55.7,13.7,83.7,20.6c0,67.8,0,135.5,0,203.6
		c-27.8,7.9-55.7,15.8-83.9,23.8c0-3.1,0-5.9,0-8.9C116.9,259.1,91.9,259.1,66.6,259.1z M173.9,146.6c0-1.9,0-3.6,0-5.3
		c-6.8,0-13.3,0-20,0c0,1.8,0,3.5,0,5.3C160.6,146.6,167.1,146.6,173.9,146.6z"/>
	<path class="st0" d="M39.9,137.6h40.9v-11.3l17.5,16c0,0-11.5,10.3-17.5,15.8c0-3.2,0-11.3,0-11.3H39.9
		C39.9,146.8,39.9,137.6,39.9,137.6z"/>
</g>
<g>
	<path class="st0" d="M111.7,315.4c0,1.8-0.7,3.2-2,4.3c-1.2,1-2.7,1.5-4.5,1.5H91.6l-0.6-4.4h13.9c1.6,0,2.4-0.6,2.4-1.7
		c0-0.6-0.2-1.1-0.7-1.6l-9.9-10.5l3-3l9.9,10.5C111,311.8,111.7,313.5,111.7,315.4z"/>
	<path class="st0" d="M131.8,321.7c0,2.9-1.1,5.4-3.3,7.5c-2.2,2.1-4.8,3.1-7.7,3.1h-5.7l-0.6-4.4h5.5c2.1,0,3.8-0.6,5.2-1.8
		c1.4-1.2,2.1-2.8,2.2-4.9c-3.7,0-6.3-0.5-8-1.5c-2.2-1.3-3.3-3.6-3.3-7c0-3.7,0.9-6.3,2.6-7.7c1.1-0.9,2.9-1.4,5.4-1.4
		c3.3,0,5.6,1.4,6.7,4.2c0.7,1.7,1,4.6,1,8.4V321.7z M127.4,316.7v-4.5c0-2.9-1.1-4.3-3.4-4.3c-1.4,0-2.3,0.5-2.8,1.4
		c-0.3,0.7-0.5,1.8-0.5,3.4c0,1.9,0.7,3.1,2.2,3.6C123.7,316.6,125.2,316.7,127.4,316.7z"/>
	<path class="st0" d="M153.2,320.4c0,3.2-1,6-3,8.3c-2.1,2.4-4.8,3.6-8,3.6h-5.9l-0.7-4.5h5c2.1,0,3.9-0.5,5.4-1.5
		c1.8-1.2,2.6-2.8,2.6-4.8v-14.1h4.5V320.4z"/>
	<path class="st0" d="M174.9,321.7c0,2.9-1.1,5.4-3.3,7.5c-2.2,2.1-4.8,3.1-7.7,3.1h-5.7l-0.6-4.4h5.5c2.1,0,3.8-0.6,5.2-1.8
		c1.4-1.2,2.1-2.8,2.2-4.9c-3.7,0-6.3-0.5-8-1.5c-2.2-1.3-3.3-3.6-3.3-7c0-3.7,0.9-6.3,2.6-7.7c1.1-0.9,2.9-1.4,5.4-1.4
		c3.3,0,5.6,1.4,6.7,4.2c0.7,1.7,1,4.6,1,8.4V321.7z M170.5,316.7v-4.5c0-2.9-1.1-4.3-3.4-4.3c-1.4,0-2.3,0.5-2.8,1.4
		c-0.3,0.7-0.5,1.8-0.5,3.4c0,1.9,0.7,3.1,2.2,3.6C166.7,316.6,168.2,316.7,170.5,316.7z"/>
</g>
</svg>
