<?xml version="1.0" encoding="utf-8"?>
<!-- Generator: Adobe Illustrator 22.0.0, SVG Export Plug-In . SVG Version: 6.00 Build 0)  -->
<svg version="1.1" id="Layer_1" xmlns="http://www.w3.org/2000/svg" xmlns:xlink="http://www.w3.org/1999/xlink" x="0px" y="0px"
	 viewBox="0 0 741.1 212.4" style="enable-background:new 0 0 741.1 212.4;" xml:space="preserve">
<style type="text/css">
	.st0{fill:#0DD1FF;}
	.st1{fill:#FF5076;}
	.st2{fill:#FFFFFF;}
</style>
<title>Asset 1ldpi</title>
<g id="Layer_2_1_">
	<g id="Layer_1-2">
		<path class="st0" d="M565.6,136l-22.9-9.5l16.8-9.1c5.2-2.8,7.1-9.3,4.3-14.4c-1-1.8-2.5-3.3-4.3-4.3L516,75.2L555.6,48
			c4.8-3.3,11.5-2.1,14.8,2.7c1,1.4,1.6,3.1,1.8,4.8l8.1,69.4c0.7,5.8-3.4,11.1-9.3,11.8C569.2,137,567.3,136.7,565.6,136z"/>
		<path class="st1" d="M542.7,126.5L495,152.3c-5.2,2.8-11.6,0.9-14.4-4.3c-0.8-1.5-1.3-3.3-1.3-5V73.2c0-5.9,4.8-10.6,10.7-10.6
			c1.8,0,3.5,0.4,5,1.3l21,11.4l-20.4,14c-4.8,3.3-6,10-2.7,14.8c1.2,1.7,2.8,3,4.7,3.8L542.7,126.5z"/>
		<path class="st2" d="M427.3,75.4v38.3c0,2.9-2.4,5.3-5.3,5.3c-2.9,0-5.3-2.4-5.3-5.3V88.7h-13.8v24.9c0,2.9-2.4,5.3-5.3,5.3
			c-2.9,0-5.3-2.4-5.3-5.3V95.7h-13.8v15.5c0,4.2-3.4,7.7-7.7,7.7l0,0h-36.7c-9.5,0-17.1-7.7-17.1-17.2V75.4h-13.8v28
			c0,8.6-7,15.6-15.6,15.6h-17.4c-13.8,0-26.8,6.5-35.1,17.5l-0.7,0.9v-21h16.1c11.1,0,20-8.9,20-20c0,0,0,0,0,0v-7.5
			c0-11.2-9-20.2-20.2-20.3h-8.7c-11.6,0-21.1,9.4-21.1,21.1v12.9h-1.3c-16.7,0-32.5,7.3-43.3,20l-8.1,9.6
			c-6.1,7.2-15.1,11.4-24.6,11.4v13.7c13.5,0,26.3-5.9,35.1-16.1l8.1-9.6c8.2-9.6,20.1-15.2,32.8-15.2h1.3v32.6
			c0,5.5,4.4,9.9,9.9,9.9c3.1,0,6-1.5,7.9-3.9l7.7-10.1c5.7-7.6,14.6-12.1,24.1-12.1h17.4c8.9,0,17.3-4.1,22.9-11
			c5.9,7,14.5,11,23.7,11h36.7c5.1,0,10-1.8,13.8-5.1c7,6.5,17.7,6.8,25.1,0.7c8.1,6.7,20.1,5.6,26.8-2.4c2.9-3.4,4.4-7.7,4.4-12.2
			V75.4H427.3z M234.5,89.5c0-4.1,3.3-7.3,7.3-7.3h8.7c3.6,0,6.5,2.9,6.5,6.5v7.5c0,3.4-2.8,6.2-6.2,6.2l0,0h-16.1L234.5,89.5z"/>
		<polygon class="st2" points="272.1,161.6 295.7,161.6 295.7,171.3 309.4,171.3 309.4,147.8 272.1,147.8 		"/>
	</g>
</g>
</svg>
