<?xml version="1.0" encoding="utf-8"?>
<!-- Generator: Adobe Illustrator 22.0.0, SVG Export Plug-In . SVG Version: 6.00 Build 0)  -->
<svg version="1.1" id="Layer_1" xmlns="http://www.w3.org/2000/svg" xmlns:xlink="http://www.w3.org/1999/xlink" x="0px" y="0px"
	 viewBox="0 0 425.2 425.2" style="enable-background:new 0 0 425.2 425.2;" xml:space="preserve">
<style type="text/css">
	.st0{fill:#FFFFFF;}
	.st1{fill:none;stroke:#FFFFFF;stroke-width:9;stroke-miterlimit:10;}
	.st2{font-family:'MyriadPro-Bold';}
	.st3{font-size:52px;}
</style>
<g>
	<g>
		<path class="st0" d="M346,271.1c-14.6-43.2-53.7-75.3-100.7-79.5c25.4-16.3,42.2-44.7,42.2-77.1c0-50.6-41-91.7-91.7-91.7
			c-50.6,0-91.7,41-91.7,91.7c0,32.4,16.8,60.8,42.2,77.1c-59.8,5.3-106.8,55.7-106.8,116.9v51.4l217.7-0.1L346,271.1z"/>
		<polygon class="st0" points="324.8,359.9 364.1,359.9 364.1,320.6 		"/>
	</g>
	<g>
		<path class="st0" d="M391.3,269.2l-8.7-8.7c-4.5-4.5-12-4.5-16.6,0.1l-4.1,4.1l-1.3,1.6l24.9,24.9l1.6-1.3l4.1-4
			C395.8,281.2,395.8,273.7,391.3,269.2z"/>
		<polygon class="st0" points="357.9,268.9 357.7,268.7 257.1,369.4 282.4,394.6 382.9,294 382.8,293.8 		"/>
		<polygon class="st0" points="238.1,413.6 279.1,397.8 253.9,372.6 		"/>
	</g>
	<circle class="st1" cx="365.7" cy="211.4" r="30.8"/>
	<text transform="matrix(1 0 0 1 350.2539 226.634)" class="st0 st2 st3">+</text>
</g>
</svg>
