<?xml version="1.0" encoding="utf-8"?>
<!-- Generator: Adobe Illustrator 22.0.0, SVG Export Plug-In . SVG Version: 6.00 Build 0)  -->
<svg version="1.1" id="Layer_1" xmlns="http://www.w3.org/2000/svg" xmlns:xlink="http://www.w3.org/1999/xlink" x="0px" y="0px"
	 viewBox="0 0 283.5 283.5" style="enable-background:new 0 0 283.5 283.5;" xml:space="preserve">
<style type="text/css">
	.st0{fill:#FFFFFF;}
</style>
<path class="st0" d="M238,145.4c0-52.1-42.3-94.4-94.4-94.4c-52.1,0-94.4,42.3-94.4,94.4c0,29.3,13.3,55.5,34.3,72.8
	c10.2-26,33.3-44.1,60.1-44.1c26.9,0,50,18.2,60.2,44.1C224.7,200.8,238,174.7,238,145.4z M143.6,164.2c-18.6,0-33.6-15-33.6-33.6
	C110,112,125,97,143.6,97c18.6,0,33.6,15.1,33.6,33.6C177.2,149.1,162.1,164.2,143.6,164.2z"/>
</svg>
