<?xml version="1.0" encoding="utf-8"?>
<!-- Generator: Adobe Illustrator 22.0.0, SVG Export Plug-In . SVG Version: 6.00 Build 0)  -->
<svg version="1.1" id="Layer_1" xmlns="http://www.w3.org/2000/svg" xmlns:xlink="http://www.w3.org/1999/xlink" x="0px" y="0px"
	 viewBox="0 0 322.5 283.5" style="enable-background:new 0 0 322.5 283.5;" xml:space="preserve">
<style type="text/css">
	.st0{fill:#FFFFFF;}
</style>
<path class="st0" d="M254.1,117.4c0-52.1-42.3-94.4-94.4-94.4c-52.1,0-94.4,42.3-94.4,94.4c0,29.3,13.3,55.5,34.3,72.8
	c10.2-26,33.3-44.1,60.1-44.1c26.9,0,50,18.2,60.2,44.1C240.8,172.8,254.1,146.7,254.1,117.4z M159.7,136.2
	c-18.6,0-33.6-15-33.6-33.6c0-18.6,15.1-33.6,33.6-33.6c18.6,0,33.6,15.1,33.6,33.6C193.3,121.1,178.3,136.2,159.7,136.2z"/>
<g>
	<path class="st0" d="M122,248.1c-2.4,0-4-0.7-4.9-2.1c0,3.7-0.9,6.7-2.7,9.2c-2,2.7-4.8,4-8.4,4h-6.8c-3,0-5.5-1.1-7.6-3.4
		c-2-2.2-3-4.8-3-7.9v-9.2h4.3v9.7c0,1.9,0.7,3.5,2.1,4.7c1.4,1.2,3,1.8,4.9,1.8h5.7c1.9,0,3.5-0.6,4.8-1.8c1.4-1.2,2.1-2.8,2.1-4.7
		V220h4.4v20.7c0,2,1.7,3,5,3.1V248.1z"/>
	<path class="st0" d="M135.9,241c0,1.9-0.6,3.5-1.7,4.9c-1.2,1.5-2.7,2.2-4.6,2.2h-9.4v-4.4h8c1.2,0,2.1-0.2,2.5-0.7
		c0.5-0.5,0.7-1.4,0.7-2.6v-6h4.4V241z M126.7,256.6c0,0.7-0.3,1.4-0.8,1.9c-0.5,0.5-1.2,0.7-2,0.7c-0.8,0-1.5-0.2-2.1-0.7
		c-0.6-0.5-1-1.1-1-1.9c0-1.6,0.9-2.4,2.8-2.4C125.7,254.1,126.7,254.9,126.7,256.6z M135.1,256.6c0,0.7-0.3,1.4-0.8,1.9
		c-0.5,0.5-1.2,0.7-2,0.7c-0.8,0-1.5-0.2-2.1-0.7c-0.6-0.5-1-1.1-1-1.9c0-1.6,0.9-2.4,2.8-2.4C134.1,254.1,135.1,254.9,135.1,256.6z
		"/>
	<path class="st0" d="M150.1,248.1c-3.7,0-6.3-0.7-7.8-2.1c-1-0.9-1.5-2.4-1.5-4.6v-20.8h4.4v18.8c0,2,0.3,3.3,1,3.7
		c0.4,0.3,1.7,0.4,3.9,0.5V248.1z"/>
	<path class="st0" d="M168.7,241.2c0.1,1.9-0.6,3.5-2.1,4.9c-1.4,1.3-3.1,2-5,2h-13.2v-4.4h13.2c1.6,0,2.4-1.1,2.4-3.3
		c-2.3,0-4.9-0.2-7.7-0.4c-2.4-0.9-3.6-2.9-3.6-6c0-2.1,0.7-3.9,2-5.2c1.3-1.3,3.1-2,5.2-2c1.7,0,3.3,0.5,4.8,1.4
		c2.3,1.5,3.6,3.9,3.8,7.4L168.7,241.2z M163.7,236.3c-0.1-3.2-1.5-4.9-4.1-4.9c-1.9,0-2.9,0.8-2.9,2.3c0,1.2,0.4,2,1.1,2.3
		c0.3,0.1,1.2,0.2,2.7,0.2H163.7z M163.1,221.3c0,0.8-0.3,1.6-0.9,2.2c-0.6,0.6-1.3,0.9-2.2,0.9c-2.1,0-3.2-1-3.2-3.1
		c0-1.7,1-2.6,3.1-2.6C162,218.7,163.1,219.6,163.1,221.3z"/>
	<path class="st0" d="M190.5,248.7c0,2.9-1.1,5.4-3.3,7.5c-2.2,2.1-4.8,3.1-7.7,3.1h-5.7l-0.6-4.4h5.5c2.1,0,3.8-0.6,5.2-1.8
		c1.4-1.2,2.1-2.8,2.2-4.9c-3.7,0-6.3-0.5-8-1.5c-2.2-1.3-3.3-3.6-3.3-7c0-3.7,0.9-6.3,2.6-7.7c1.1-0.9,2.9-1.4,5.4-1.4
		c3.3,0,5.6,1.4,6.7,4.2c0.7,1.7,1,4.6,1,8.4V248.7z M186.1,243.7v-4.5c0-2.9-1.1-4.3-3.4-4.3c-1.4,0-2.3,0.5-2.8,1.4
		c-0.3,0.7-0.5,1.8-0.5,3.4c0,1.9,0.7,3.1,2.2,3.6C182.4,243.6,183.9,243.7,186.1,243.7z"/>
	<path class="st0" d="M216.3,248.1c-2.2,0-3.8-0.7-4.7-2.1c0,3.7-0.9,6.7-2.7,9.2c-2,2.7-4.8,4-8.4,4h-5.7l-0.7-4.4h6.1
		c1.9,0,3.5-0.6,4.9-1.8c1.4-1.2,2.1-2.8,2.1-4.7v-14.1h4.4v6.3c0,2,1.6,3,4.8,3.1V248.1z"/>
	<path class="st0" d="M230.8,241c0,1.9-0.6,3.5-1.7,4.9c-1.2,1.5-2.7,2.2-4.6,2.2h-9.4v-4.4h8c1.2,0,2.1-0.2,2.5-0.7
		c0.5-0.5,0.7-1.4,0.7-2.6v-6h4.4V241z M221.8,255.8c0,1.6-0.9,2.3-2.8,2.3c-2,0-3.1-0.8-3.1-2.3c0-0.8,0.3-1.4,0.8-1.9
		c0.5-0.5,1.2-0.8,2-0.8C220.8,253.1,221.8,254,221.8,255.8z M225.8,262c0,1.6-0.9,2.4-2.8,2.4c-2.1,0-3.1-0.8-3.1-2.4
		c0-1.8,0.9-2.7,2.7-2.7c0.8,0,1.6,0.2,2.2,0.7C225.5,260.5,225.8,261.2,225.8,262z M230.2,255.8c0,1.6-0.9,2.3-2.8,2.3
		c-2,0-3.1-0.8-3.1-2.3c0-0.8,0.3-1.4,0.8-1.9c0.5-0.5,1.2-0.8,2-0.8C229.2,253.1,230.2,254,230.2,255.8z"/>
</g>
</svg>
