<?xml version="1.0" encoding="utf-8"?>
<!-- Generator: Adobe Illustrator 22.0.0, SVG Export Plug-In . SVG Version: 6.00 Build 0)  -->
<svg version="1.1" id="Layer_1" xmlns="http://www.w3.org/2000/svg" xmlns:xlink="http://www.w3.org/1999/xlink" x="0px" y="0px"
	 viewBox="0 0 425.2 425.2" style="enable-background:new 0 0 425.2 425.2;" xml:space="preserve">
<style type="text/css">
	.st0{fill:#0C153B;}
</style>
<g>
	<path class="st0" d="M412.9,207.7c0,11.4-0.1,22.7,0,34.1c0.1,9.7-4.2,16.7-12.6,21.5c-1.4,0.8-2.7,2.6-3.2,4.1
		c-12.7,36.8-34.7,67-65.7,90.3c-27.1,20.4-57.5,33.1-91.4,36.3c-14.5,1.3-29.2,1.4-43.8,0.8c-15.2-0.7-29.7-5.5-43.6-11.2
		C98.7,361.9,60.8,324.2,41,269.1c-1.1-2.9-2.3-5.1-5.3-6.7c-6.8-3.8-11-9.9-11-17.9c-0.2-24.6-0.2-49.2,0-73.7
		c0.1-8.3,4.8-14.2,11.7-18.5c1.4-0.9,3.1-2.3,3.6-3.8c11.5-35.2,32-64.3,60.8-87.2c41.6-33.1,89.4-47.8,142.1-40
		c74.7,11.1,125.8,53.3,153.2,123.9c1.3,3.4,2.7,6.1,6.3,8.1c7.4,4.3,10.7,11.3,10.7,19.9C412.8,184.7,412.9,196.2,412.9,207.7z
		 M218.2,248.3c56.4,0,112.7,0,169.1,0c7.1,0,8.2-1.1,8.2-8.3c0-21.9,0-43.7,0-65.6c0-6.3-1.3-7.6-7.6-7.6c-112.8,0-225.7,0-338.5,0
		c-6.3,0-7.5,1.2-7.5,7.6c0,21.6,0,43.1,0,64.7c0,8.4,0.7,9.1,9,9.1C106.7,248.3,162.5,248.3,218.2,248.3z M210,149.3
		c0-13.4,0-26.4,0-39.3c0-2.9-1.9-2.7-3.8-2.7c-18.1,0-36.2,0.1-54.3-0.1c-2.9,0-4.1,1-4.8,3.6c-2.8,10.1-5.7,20.1-8.5,30.2
		c-0.7,2.6-1.1,5.2-1.6,8.1C161.5,149.3,185.4,149.3,210,149.3z M135.9,265.7c4.2,14.2,8,27.4,12,40.5c0.3,0.9,2.5,1.6,3.8,1.7
		c18.1,0.1,36.2,0,54.3,0.1c3.4,0,4-1.4,4-4.3c-0.1-11.2-0.2-22.4,0-33.6c0.1-3.4-0.9-4.4-4.4-4.4c-19.1,0.2-38.2,0.1-57.3,0.1
		C144.8,265.7,141.3,265.7,135.9,265.7z M301.3,149.3c-4.1-13.9-7.8-27-11.8-39.9c-0.3-0.9-2.4-1.9-3.7-1.9
		c-18.2-0.1-36.5,0-54.7-0.1c-3.1,0-3.9,1.1-3.8,4c0.1,9.6,0.1,19.2,0.1,28.9c0,3,0,5.9,0,9.1C251.9,149.3,275.8,149.3,301.3,149.3z
		 M227.4,265.9c0,13.5-0.1,26.5,0.2,39.6c0,0.8,2.3,2.2,3.5,2.3c18.2,0.1,36.5,0.1,54.7,0.1c2.4,0,3.7-0.8,4.3-3.1
		c2.4-8.6,5.1-17,7.5-25.6c1.2-4.2,1.9-8.6,2.9-13.3C275.9,265.9,252,265.9,227.4,265.9z M58.1,265.5c0,0,12.3,28.3,21.1,40.3
		c0.9,1.2,3.1,1.9,4.7,1.9c14.1,0.1,28.2,0.1,42.2,0.1c1.1,0,2.1-0.3,2.9-0.4c-3.1-12.7-6.2-25.1-8.9-37.6c-0.7-3.4-2-4.3-5.4-4.3
		C97.5,265.7,58.1,265.5,58.1,265.5z M308.3,307.8c11.2,0,22.5-1,33.5,0.3c12.1,1.4,19.3-3,24.1-13.8c4.1-9.4,14.2-28.5,14.2-28.5
		s-2,0-2.2,0c-19.1-0.1-38.2-0.1-57.3-0.1c-0.9,0-2.4,1.2-2.6,2.1C314.6,280.9,311.6,294,308.3,307.8z M129.5,107.5
		c0,0-31.7-0.2-46.8,0c-1.4,0-3.3,1.3-4,2.5C72.2,121.8,58,149.6,58,149.6s39.6-0.1,58.3,0c2.5,0,3.2-1.1,3.6-3.3
		c0.9-4.9,1.9-9.9,3.1-14.8C125,123.7,129.5,107.5,129.5,107.5z M308.2,107.3c3.2,13.1,6.3,25.5,9,38c0.7,3.4,2.1,4.3,5.4,4.3
		c17.2-0.2,34.5-0.1,51.7-0.1c1.5,0,2.9-0.2,4.7-0.4c-5.4-14.6-12.2-27.7-21-39.7c-0.9-1.2-3.1-2-4.7-2c-8.3-0.2-16.7-0.1-25-0.1
		C321.7,107.3,315,107.3,308.2,107.3z M156.8,89.5c0.4,0.1,0.7,0.4,1.1,0.4c16.4,0,32.8,0,49.1,0.1c3.1,0,3-1.8,3-3.9
		c0-13.1,0-26.1,0-39.2c0-2.8,0-5.7,0-8.5C193.1,38.3,161.2,69.2,156.8,89.5z M156.4,325.4c10.9,24.9,33.1,49.3,53.4,51.4
		c0.1-1.3,0.2-2.5,0.2-3.7c0-14.5-0.1-29,0.1-43.5c0.1-3.7-1.3-4.5-4.7-4.5c-14.9,0.2-29.9,0.1-44.8,0.1
		C159.3,325.2,158.1,325.3,156.4,325.4z M227.4,376.9c17.9-1.1,50.4-32.8,53.1-51.4c-17.6,0-35.1,0-52.9,0c-0.1,1.6-0.2,2.9-0.2,4.2
		C227.4,345.3,227.4,361,227.4,376.9z M227.6,38.4c-0.1,1.1-0.3,2.2-0.3,3.3c0,14.6,0.1,29.3-0.1,43.9c0,3.4,0.9,4.4,4.4,4.4
		c15.2-0.2,30.4-0.1,45.7-0.1c1.1,0,2.2-0.2,3.3-0.3C275.4,68.6,244,38.2,227.6,38.4z M342.2,325.2c-2.6,0-4,0-5.3,0
		c-10.6,0-21.3,0.1-31.9-0.1c-3.2-0.1-4.8,0.9-6.2,3.9c-6,13.4-13.8,25.8-23.2,37.1c-0.6,0.7-1,1.5-2,3.1
		C300.1,359.7,322.4,345.7,342.2,325.2z M163.5,46C137.2,55.6,95,89.8,95,89.8s27.1,0.3,39.1,0c1.3,0,3.1-1.7,3.9-3
		c3.7-6.6,6.9-13.6,10.9-20C153.2,59.9,158.2,53.5,163.5,46z M163,368.4c-10.4-12.7-18.8-26.5-25.6-41.3c-0.5-1.1-2.7-1.9-4.2-1.9
		c-10.2-0.2-20.4-0.1-30.6-0.1c-2.1,0-4.2,0-7.5,0C114.9,345.7,137.2,359.8,163,368.4z M274.4,46.8c10.5,12.6,18.6,26.4,25.4,41
		c0.5,1.1,2.6,2.1,4,2.1c11.6,0.2,38.7,0,38.7,0S300.2,55.4,274.4,46.8z"/>
	<path class="st0" d="M198.8,206.6c0-7.6-0.1-15.2,0-22.9c0.1-5.5,3.9-7.9,8.6-5.2c13.6,7.7,27.2,15.5,40.7,23.3
		c4.6,2.7,4.6,7.2,0.1,9.9c-13.5,7.9-27.1,15.6-40.7,23.3c-4.8,2.7-8.6,0.4-8.7-5.1C198.8,222.1,198.8,214.3,198.8,206.6z"/>
</g>
</svg>
