<?xml version="1.0" encoding="utf-8"?>
<!-- Generator: Adobe Illustrator 22.0.0, SVG Export Plug-In . SVG Version: 6.00 Build 0)  -->
<svg version="1.1" id="Layer_1" xmlns="http://www.w3.org/2000/svg" xmlns:xlink="http://www.w3.org/1999/xlink" x="0px" y="0px"
	 viewBox="0 0 425.2 573.2" style="enable-background:new 0 0 425.2 573.2;" xml:space="preserve">
<style type="text/css">
	.st0{fill:#FFFFFF;}
</style>
<g>
	<path class="st0" d="M409.4,207.7c0,11.4-0.1,22.7,0,34.1c0.1,9.7-4.2,16.7-12.6,21.5c-1.4,0.8-2.7,2.6-3.2,4.1
		c-12.7,36.8-34.7,67-65.7,90.3c-27.1,20.4-57.5,33.1-91.4,36.3c-14.5,1.3-29.2,1.4-43.8,0.8c-15.2-0.7-29.7-5.5-43.6-11.2
		c-53.9-21.7-91.8-59.4-111.6-114.5c-1.1-2.9-2.3-5.1-5.3-6.7c-6.8-3.8-11-9.9-11-17.9c-0.2-24.6-0.2-49.2,0-73.7
		c0.1-8.3,4.8-14.2,11.7-18.5c1.4-0.9,3.1-2.3,3.6-3.8c11.5-35.2,32-64.3,60.8-87.2c41.6-33.1,89.4-47.8,142.1-40
		c74.7,11.1,125.8,53.3,153.2,123.9c1.3,3.4,2.7,6.1,6.3,8.1c7.4,4.3,10.7,11.3,10.7,19.9C409.3,184.7,409.4,196.2,409.4,207.7z
		 M214.7,248.3c56.4,0,112.7,0,169.1,0c7.1,0,8.2-1.1,8.2-8.3c0-21.9,0-43.7,0-65.6c0-6.3-1.3-7.6-7.6-7.6c-112.8,0-225.7,0-338.5,0
		c-6.3,0-7.5,1.2-7.5,7.6c0,21.6,0,43.1,0,64.7c0,8.4,0.7,9.1,9,9.1C103.2,248.3,159,248.3,214.7,248.3z M206.5,149.3
		c0-13.4,0-26.4,0-39.3c0-2.9-1.9-2.7-3.8-2.7c-18.1,0-36.2,0.1-54.3-0.1c-2.9,0-4.1,1-4.8,3.6c-2.8,10.1-5.7,20.1-8.5,30.2
		c-0.7,2.6-1.1,5.2-1.6,8.1C158,149.3,181.9,149.3,206.5,149.3z M132.4,265.7c4.2,14.2,8,27.4,12,40.5c0.3,0.9,2.5,1.6,3.8,1.7
		c18.1,0.1,36.2,0,54.3,0.1c3.4,0,4-1.4,4-4.3c-0.1-11.2-0.2-22.4,0-33.6c0.1-3.4-0.9-4.4-4.4-4.4c-19.1,0.2-38.2,0.1-57.3,0.1
		C141.3,265.7,137.8,265.7,132.4,265.7z M297.8,149.3c-4.1-13.9-7.8-27-11.8-39.9c-0.3-0.9-2.4-1.9-3.7-1.9
		c-18.2-0.1-36.5,0-54.7-0.1c-3.1,0-3.9,1.1-3.8,4c0.1,9.6,0.1,19.2,0.1,28.9c0,3,0,5.9,0,9.1C248.4,149.3,272.3,149.3,297.8,149.3z
		 M223.9,265.9c0,13.5-0.1,26.5,0.2,39.6c0,0.8,2.3,2.2,3.5,2.3c18.2,0.1,36.5,0.1,54.7,0.1c2.4,0,3.7-0.8,4.3-3.1
		c2.4-8.6,5.1-17,7.5-25.6c1.2-4.2,1.9-8.6,2.9-13.3C272.4,265.9,248.5,265.9,223.9,265.9z M54.6,265.5c0,0,12.3,28.3,21.1,40.3
		c0.9,1.2,3.1,1.9,4.7,1.9c14.1,0.1,28.2,0.1,42.2,0.1c1.1,0,2.1-0.3,2.9-0.4c-3.1-12.7-6.2-25.1-8.9-37.6c-0.7-3.4-2-4.3-5.4-4.3
		C94,265.7,54.6,265.5,54.6,265.5z M304.8,307.8c11.2,0,22.5-1,33.5,0.3c12.1,1.4,19.3-3,24.1-13.8c4.1-9.4,14.2-28.5,14.2-28.5
		s-2,0-2.2,0c-19.1-0.1-38.2-0.1-57.3-0.1c-0.9,0-2.4,1.2-2.6,2.1C311.1,280.9,308.1,294,304.8,307.8z M126,107.5
		c0,0-31.7-0.2-46.8,0c-1.4,0-3.3,1.3-4,2.5c-6.5,11.8-20.7,39.6-20.7,39.6s39.6-0.1,58.3,0c2.5,0,3.2-1.1,3.6-3.3
		c0.9-4.9,1.9-9.9,3.1-14.8C121.5,123.7,126,107.5,126,107.5z M304.7,107.3c3.2,13.1,6.3,25.5,9,38c0.7,3.4,2.1,4.3,5.4,4.3
		c17.2-0.2,34.5-0.1,51.7-0.1c1.5,0,2.9-0.2,4.7-0.4c-5.4-14.6-12.2-27.7-21-39.7c-0.9-1.2-3.1-2-4.7-2c-8.3-0.2-16.7-0.1-25-0.1
		C318.2,107.3,311.5,107.3,304.7,107.3z M153.3,89.5c0.4,0.1,0.7,0.4,1.1,0.4c16.4,0,32.8,0,49.1,0.1c3.1,0,3-1.8,3-3.9
		c0-13.1,0-26.1,0-39.2c0-2.8,0-5.7,0-8.5C189.6,38.3,157.7,69.2,153.3,89.5z M152.9,325.4c10.9,24.9,33.1,49.3,53.4,51.4
		c0.1-1.3,0.2-2.5,0.2-3.7c0-14.5-0.1-29,0.1-43.5c0.1-3.7-1.3-4.5-4.7-4.5c-14.9,0.2-29.9,0.1-44.8,0.1
		C155.8,325.2,154.6,325.3,152.9,325.4z M223.9,376.9c17.9-1.1,50.4-32.8,53.1-51.4c-17.6,0-35.1,0-52.9,0c-0.1,1.6-0.2,2.9-0.2,4.2
		C223.9,345.3,223.9,361,223.9,376.9z M224.1,38.4c-0.1,1.1-0.3,2.2-0.3,3.3c0,14.6,0.1,29.3-0.1,43.9c0,3.4,0.9,4.4,4.4,4.4
		c15.2-0.2,30.4-0.1,45.7-0.1c1.1,0,2.2-0.2,3.3-0.3C271.9,68.6,240.5,38.2,224.1,38.4z M338.7,325.2c-2.6,0-4,0-5.3,0
		c-10.6,0-21.3,0.1-31.9-0.1c-3.2-0.1-4.8,0.9-6.2,3.9c-6,13.4-13.8,25.8-23.2,37.1c-0.6,0.7-1,1.5-2,3.1
		C296.6,359.7,318.9,345.7,338.7,325.2z M160,46c-26.3,9.6-68.5,43.8-68.5,43.8s27.1,0.3,39.1,0c1.3,0,3.1-1.7,3.9-3
		c3.7-6.6,6.9-13.6,10.9-20C149.7,59.9,154.7,53.5,160,46z M159.5,368.4c-10.4-12.7-18.8-26.5-25.6-41.3c-0.5-1.1-2.7-1.9-4.2-1.9
		c-10.2-0.2-20.4-0.1-30.6-0.1c-2.1,0-4.2,0-7.5,0C111.4,345.7,133.7,359.8,159.5,368.4z M270.9,46.8c10.5,12.6,18.6,26.4,25.4,41
		c0.5,1.1,2.6,2.1,4,2.1c11.6,0.2,38.7,0,38.7,0S296.7,55.4,270.9,46.8z"/>
	<path class="st0" d="M195.3,206.6c0-7.6-0.1-15.2,0-22.9c0.1-5.5,3.9-7.9,8.6-5.2c13.6,7.7,27.2,15.5,40.7,23.3
		c4.6,2.7,4.6,7.2,0.1,9.9c-13.5,7.9-27.1,15.6-40.7,23.3c-4.8,2.7-8.6,0.4-8.7-5.1C195.3,222.1,195.3,214.3,195.3,206.6z"/>
</g>
<g>
	<path class="st0" d="M132.7,450h-4.1l0.2,2.1c0,2.6-1,4.7-2.9,6.4c-1.9,1.7-4.1,2.5-6.7,2.5h-6.8c-3.5,0-6.2-1.3-8.2-3.8
		c-1.8-2.3-2.7-5.3-2.7-8.8v-7.9h4.4v9.6c0,2.1,0.7,3.7,2.2,4.9c1.4,1.1,3.1,1.6,5.3,1.6h5.6c1.6,0,2.9-0.4,3.9-1.3
		c1.1-0.9,1.6-2.1,1.6-3.7c0-0.9-1.3-1.5-4-1.7c-0.5,0-2.2-0.1-5.1-0.1l-0.4-4.4h17.7V450z"/>
	<path class="st0" d="M146.9,442.8c0,1.9-0.6,3.5-1.7,4.9c-1.2,1.5-2.7,2.2-4.6,2.2h-9.4v-4.4h8c1.2,0,2.1-0.2,2.5-0.7
		c0.5-0.5,0.7-1.4,0.7-2.6v-6h4.4V442.8z M137.7,458.4c0,0.7-0.3,1.4-0.8,1.9c-0.5,0.5-1.2,0.7-2,0.7c-0.8,0-1.5-0.2-2.1-0.7
		c-0.6-0.5-1-1.1-1-1.9c0-1.6,0.9-2.4,2.8-2.4C136.7,455.9,137.7,456.8,137.7,458.4z M146.1,458.4c0,0.7-0.3,1.4-0.8,1.9
		c-0.5,0.5-1.2,0.7-2,0.7c-0.8,0-1.5-0.2-2.1-0.7c-0.6-0.5-1-1.1-1-1.9c0-1.6,0.9-2.4,2.8-2.4C145.1,455.9,146.1,456.8,146.1,458.4z
		"/>
	<path class="st0" d="M171.1,450h-2.9c0,3.2-1.1,5.9-3.2,8c-2.2,2.1-4.9,3.1-8.1,3.1h-5.7l-0.6-4.4h5.5c2.1,0,3.8-0.6,5.2-1.8
		c1.4-1.2,2.1-2.8,2.2-4.9c-3.6,0-6.3-0.5-8-1.5c-2.2-1.3-3.3-3.6-3.3-7c0-3.7,0.9-6.3,2.7-7.7c1-0.9,2.8-1.3,5.2-1.3
		c3.5,0,5.8,1.5,7,4.4c0.7,1.7,1.1,4.6,1.1,8.8h2.9V450z M163.6,445.6v-4.2c0-1.2-0.3-2.3-0.9-3.1c-0.7-1-1.6-1.5-2.8-1.5
		c-1.4,0-2.3,0.5-2.8,1.4c-0.3,0.7-0.5,1.8-0.5,3.4c0,1.9,0.8,3,2.3,3.6C159.8,445.4,161.4,445.6,163.6,445.6z"/>
	<path class="st0" d="M185.3,442.8c0,1.9-0.6,3.5-1.7,4.9c-1.2,1.5-2.7,2.2-4.6,2.2h-9.4v-4.4h8c1.2,0,2.1-0.2,2.5-0.7
		c0.5-0.5,0.7-1.4,0.7-2.6v-6h4.4V442.8z M176.1,458.4c0,0.7-0.3,1.4-0.8,1.9c-0.5,0.5-1.2,0.7-2,0.7c-0.8,0-1.5-0.2-2.1-0.7
		c-0.6-0.5-1-1.1-1-1.9c0-1.6,0.9-2.4,2.8-2.4C175.1,455.9,176.1,456.8,176.1,458.4z M184.5,458.4c0,0.7-0.3,1.4-0.8,1.9
		c-0.5,0.5-1.2,0.7-2,0.7c-0.8,0-1.5-0.2-2.1-0.7c-0.6-0.5-1-1.1-1-1.9c0-1.6,0.9-2.4,2.8-2.4C183.5,455.9,184.5,456.8,184.5,458.4z
		"/>
	<path class="st0" d="M216.9,450h-2c-1.7,0-3.5-1-5.6-3c-1.3,2-3.3,3-5.8,3h-13.6l-0.6-4.4h14c1.6,0,2.4-0.6,2.4-1.7
		c0-0.6-0.2-1.2-0.7-1.6l-9.9-10.5l3-3l13.2,14c1.2,1.2,1.9,2,2.4,2.2c0.7,0.4,1.8,0.6,3.3,0.6V450z"/>
	<path class="st0" d="M230.4,442.8c0,1.9-0.6,3.5-1.7,4.9c-1.2,1.5-2.7,2.2-4.6,2.2h-9.4v-4.4h8c1.2,0,2.1-0.2,2.5-0.7
		c0.5-0.5,0.7-1.4,0.7-2.6v-6h4.4V442.8z M221.3,458.4c0,0.7-0.3,1.4-0.8,1.9c-0.5,0.5-1.2,0.7-2,0.7c-0.8,0-1.5-0.2-2.1-0.7
		c-0.6-0.5-1-1.1-1-1.9c0-1.6,0.9-2.4,2.8-2.4C220.2,455.9,221.3,456.8,221.3,458.4z M229.7,458.4c0,0.7-0.3,1.4-0.8,1.9
		c-0.5,0.5-1.2,0.7-2,0.7c-0.8,0-1.5-0.2-2.1-0.7c-0.6-0.5-1-1.1-1-1.9c0-1.6,0.9-2.4,2.8-2.4C228.7,455.9,229.7,456.8,229.7,458.4z
		"/>
	<path class="st0" d="M251.3,450.5c0,2.9-1.1,5.4-3.3,7.5c-2.2,2.1-4.8,3.1-7.7,3.1h-5.7l-0.6-4.4h5.5c2.1,0,3.8-0.6,5.2-1.8
		c1.4-1.2,2.1-2.8,2.2-4.9c-3.7,0-6.3-0.5-8-1.5c-2.2-1.3-3.3-3.6-3.3-7c0-3.7,0.9-6.3,2.6-7.7c1.1-0.9,2.9-1.4,5.4-1.4
		c3.3,0,5.6,1.4,6.7,4.2c0.7,1.7,1,4.6,1,8.4V450.5z M246.9,445.6V441c0-2.9-1.1-4.3-3.4-4.3c-1.4,0-2.3,0.5-2.8,1.4
		c-0.3,0.7-0.5,1.8-0.5,3.4c0,1.9,0.7,3.1,2.2,3.6C243.2,445.4,244.7,445.6,246.9,445.6z"/>
	<path class="st0" d="M288.6,450c-2.2,0-3.8-0.7-4.7-2.1c0,3.7-0.9,6.7-2.7,9.2c-2,2.7-4.8,4-8.4,4h-5.7l-0.7-4.4h6.1
		c1.9,0,3.5-0.6,4.9-1.8c1.4-1.2,2.1-2.8,2.1-4.7v-14.1h4.4v6.3c0,2,1.6,3,4.8,3.1V450z"/>
	<path class="st0" d="M305.9,450h-1.4c-2.5,0-4.4-0.6-5.7-1.7c-1.5,1.1-2.9,1.7-4.2,1.7h-7.2v-4.4c4.5,0,7.1-0.1,7.7-0.3
		c1-0.3,1.5-1.7,1.5-3.9c0-0.6,0-1.4,0-2.6c0-1.2,0-2,0-2.6h4.5v6c0,1.4,0.5,2.4,1.5,2.9c0.6,0.3,1.7,0.4,3.4,0.5V450z M295.5,457.9
		c0,0.9-0.3,1.6-0.9,2.2s-1.3,0.9-2.2,0.9c-2.2,0-3.3-1-3.3-3.1c0-1.7,1-2.6,3.1-2.6C294.4,455.3,295.5,456.2,295.5,457.9z"/>
	<path class="st0" d="M329.3,441.5l-10.1,5.7c-2.4,1.4-4.8,2.2-7.4,2.5c-1.3,0.2-3.9,0.2-7.9,0.2v-4.4c5.7,0,9.7-0.6,12-1.7
		c0.2-0.1,1.2-0.6,3.2-1.7c1.2-0.7,3-1.7,5.4-3c-0.6-1.2-1.5-2-2.8-2.3c-0.6-0.1-1.9-0.2-3.9-0.2h-7.7l-0.6-4.4h10.8
		C326.3,432.4,329.3,435.4,329.3,441.5z M320.9,424.5c0,0.8-0.3,1.5-0.9,2.1c-0.6,0.6-1.3,0.9-2.1,0.9c-2.2,0-3.3-1-3.3-3.1
		c0-1.8,1.1-2.6,3.2-2.6C319.8,421.9,320.9,422.8,320.9,424.5z"/>
</g>
</svg>
