<?xml version="1.0" encoding="utf-8"?>
<!-- Generator: Adobe Illustrator 22.0.0, SVG Export Plug-In . SVG Version: 6.00 Build 0)  -->
<svg version="1.1" id="Layer_1" xmlns="http://www.w3.org/2000/svg" xmlns:xlink="http://www.w3.org/1999/xlink" x="0px" y="0px"
	 viewBox="0 0 283.5 283.5" style="enable-background:new 0 0 283.5 283.5;" xml:space="preserve">
<style type="text/css">
	.st0{fill:url(#SVGID_1_);}
	.st1{fill:url(#SVGID_2_);}
	.st2{fill:url(#SVGID_3_);}
	.st3{fill:url(#SVGID_4_);}
	.st4{fill:url(#SVGID_5_);}
	.st5{fill:url(#SVGID_6_);}
	.st6{fill:url(#SVGID_7_);}
	.st7{fill:url(#SVGID_8_);}
	.st8{fill:url(#SVGID_9_);}
	.st9{fill:url(#SVGID_10_);}
	.st10{fill:url(#SVGID_11_);}
	.st11{fill:url(#SVGID_12_);}
	.st12{fill:url(#SVGID_13_);}
	.st13{fill:url(#SVGID_14_);}
	.st14{fill:url(#SVGID_15_);}
	.st15{fill:url(#SVGID_16_);}
	.st16{fill:url(#SVGID_17_);}
	.st17{fill:url(#SVGID_18_);}
	.st18{fill:url(#SVGID_19_);}
	.st19{fill:url(#SVGID_20_);}
	.st20{fill:url(#SVGID_21_);}
	.st21{fill:url(#SVGID_22_);}
	.st22{fill:url(#SVGID_23_);}
	.st23{fill:url(#SVGID_24_);}
	.st24{fill:url(#SVGID_25_);}
	.st25{fill:url(#SVGID_26_);}
	.st26{fill:url(#SVGID_27_);}
	.st27{fill:#FFFFFF;}
</style>
<g>
	<g>
		<g>
			<g>
				<radialGradient id="SVGID_1_" cx="150.1935" cy="41.6764" r="230.4455" gradientUnits="userSpaceOnUse">
					<stop  offset="0.3387" style="stop-color:#DCDCDC"/>
					<stop  offset="0.6722" style="stop-color:#F4F4F5"/>
					<stop  offset="0.8065" style="stop-color:#FFFFFF"/>
				</radialGradient>
				<path class="st0" d="M49.3,130.7c0-51.8,42-93.8,93.8-93.8c51.8,0,93.8,42,93.8,93.8c0,51.8-42,93.8-93.8,93.8
					C91.3,224.5,49.3,182.5,49.3,130.7z"/>
				<radialGradient id="SVGID_2_" cx="150.5171" cy="48.2812" r="227.5073" gradientUnits="userSpaceOnUse">
					<stop  offset="0.1935" style="stop-color:#DDDEDD"/>
					<stop  offset="0.3387" style="stop-color:#DDDDDD"/>
					<stop  offset="0.6613" style="stop-color:#F3F3F3"/>
					<stop  offset="0.8065" style="stop-color:#FEFEFE"/>
				</radialGradient>
				<path class="st1" d="M235.4,128.7c1.1,50.9-39.3,93.1-90.2,94.2C94.2,224,52,183.6,50.9,132.7c-1.1-50.9,39.3-93.1,90.2-94.2
					C192.1,37.3,234.3,77.7,235.4,128.7z"/>
				<radialGradient id="SVGID_3_" cx="150.8294" cy="54.6728" r="224.3611" gradientUnits="userSpaceOnUse">
					<stop  offset="0.1935" style="stop-color:#DFDFDF"/>
					<stop  offset="0.3387" style="stop-color:#DEDEDE"/>
					<stop  offset="0.6613" style="stop-color:#F2F2F2"/>
					<stop  offset="0.8065" style="stop-color:#FDFDFD"/>
				</radialGradient>
				<path class="st2" d="M233.8,126.7c2.2,50.1-36.6,92.4-86.6,94.7c-50.1,2.2-92.4-36.6-94.7-86.6C50.3,84.7,89,42.3,139.1,40.1
					C189.2,37.8,231.5,76.6,233.8,126.7z"/>
				<radialGradient id="SVGID_4_" cx="151.1314" cy="60.8572" r="221.0311" gradientUnits="userSpaceOnUse">
					<stop  offset="0.1935" style="stop-color:#E0E0E0"/>
					<stop  offset="0.3387" style="stop-color:#DFDFDF"/>
					<stop  offset="0.6613" style="stop-color:#F1F1F1"/>
					<stop  offset="0.8065" style="stop-color:#FBFBFB"/>
				</radialGradient>
				<path class="st3" d="M232.2,124.7c3.3,49.2-33.8,91.7-83,95.1c-49.2,3.3-91.7-33.8-95.1-83c-3.3-49.2,33.8-91.7,83-95.1
					C186.3,38.3,228.8,75.5,232.2,124.7z"/>
				<radialGradient id="SVGID_5_" cx="151.424" cy="66.8406" r="217.5411" gradientUnits="userSpaceOnUse">
					<stop  offset="0.1935" style="stop-color:#E2E2E1"/>
					<stop  offset="0.3387" style="stop-color:#E0E0E0"/>
					<stop  offset="0.6613" style="stop-color:#F0F0F0"/>
					<stop  offset="0.8065" style="stop-color:#FAFAFA"/>
				</radialGradient>
				<path class="st4" d="M230.6,122.7c4.4,48.3-31.1,91-79.4,95.5c-48.3,4.4-91-31.1-95.5-79.4c-4.4-48.3,31.1-91,79.4-95.5
					C183.4,38.8,226.1,74.4,230.6,122.7z"/>
				<radialGradient id="SVGID_6_" cx="151.708" cy="72.6301" r="213.9143" gradientUnits="userSpaceOnUse">
					<stop  offset="0.1935" style="stop-color:#E3E3E3"/>
					<stop  offset="0.3387" style="stop-color:#E1E1E1"/>
					<stop  offset="0.6613" style="stop-color:#EFEFEF"/>
					<stop  offset="0.8065" style="stop-color:#F9F9F9"/>
				</radialGradient>
				<path class="st5" d="M229,120.6c5.6,47.4-28.4,90.3-75.8,95.9c-47.4,5.6-90.3-28.4-95.9-75.8c-5.6-47.4,28.4-90.3,75.8-95.9
					C180.5,39.3,223.4,73.2,229,120.6z"/>
				<radialGradient id="SVGID_7_" cx="151.9846" cy="78.2328" r="210.173" gradientUnits="userSpaceOnUse">
					<stop  offset="0.1935" style="stop-color:#E4E4E4"/>
					<stop  offset="0.3387" style="stop-color:#E2E2E1"/>
					<stop  offset="0.6613" style="stop-color:#EEEEEE"/>
					<stop  offset="0.8065" style="stop-color:#F7F7F8"/>
				</radialGradient>
				<path class="st6" d="M227.4,118.6c6.7,46.5-25.7,89.6-72.2,96.3c-46.5,6.7-89.6-25.7-96.3-72.2c-6.7-46.5,25.7-89.6,72.2-96.3
					C177.6,39.8,220.7,72.1,227.4,118.6z"/>
				<radialGradient id="SVGID_8_" cx="152.2548" cy="83.6565" r="206.3391" gradientUnits="userSpaceOnUse">
					<stop  offset="0.1935" style="stop-color:#E6E6E6"/>
					<stop  offset="0.3387" style="stop-color:#E2E3E2"/>
					<stop  offset="0.6613" style="stop-color:#EDEDED"/>
					<stop  offset="0.8065" style="stop-color:#F6F6F6"/>
				</radialGradient>
				<path class="st7" d="M225.8,116.6c7.8,45.6-22.9,88.9-68.6,96.7c-45.6,7.8-88.9-22.9-96.7-68.6C52.7,99.1,83.4,55.8,129.1,48
					C174.7,40.3,218,71,225.8,116.6z"/>
				<radialGradient id="SVGID_9_" cx="152.5197" cy="88.9096" r="202.4337" gradientUnits="userSpaceOnUse">
					<stop  offset="0.1935" style="stop-color:#E7E7E7"/>
					<stop  offset="0.3387" style="stop-color:#E3E3E3"/>
					<stop  offset="0.6613" style="stop-color:#ECECED"/>
					<stop  offset="0.8065" style="stop-color:#F5F4F5"/>
				</radialGradient>
				<path class="st8" d="M224.2,114.6c8.9,44.8-20.2,88.2-65,97.1c-44.8,8.9-88.2-20.2-97.1-65c-8.9-44.8,20.2-88.2,65-97.1
					C171.8,40.8,215.3,69.8,224.2,114.6z"/>
				<radialGradient id="SVGID_10_" cx="152.7805" cy="94.001" r="198.477" gradientUnits="userSpaceOnUse">
					<stop  offset="0.1935" style="stop-color:#E8E8E8"/>
					<stop  offset="0.3387" style="stop-color:#E4E4E4"/>
					<stop  offset="0.6613" style="stop-color:#EBEBEC"/>
					<stop  offset="0.8065" style="stop-color:#F3F3F3"/>
				</radialGradient>
				<path class="st9" d="M222.6,112.6c10,43.9-17.5,87.5-61.4,97.5c-43.9,10-87.5-17.5-97.5-61.4c-10-43.9,17.5-87.5,61.4-97.5
					C168.9,41.3,212.6,68.7,222.6,112.6z"/>
				<radialGradient id="SVGID_11_" cx="153.0384" cy="98.9399" r="194.4885" gradientUnits="userSpaceOnUse">
					<stop  offset="0.1935" style="stop-color:#EAEAEA"/>
					<stop  offset="0.3387" style="stop-color:#E5E5E5"/>
					<stop  offset="0.6613" style="stop-color:#EAEBEB"/>
					<stop  offset="0.8065" style="stop-color:#F2F2F2"/>
				</radialGradient>
				<path class="st10" d="M221,110.6c11.1,43-14.8,86.8-57.7,98c-43,11.1-86.8-14.8-97.9-57.7c-11.1-43,14.8-86.8,57.7-98
					C166,41.7,209.9,67.6,221,110.6z"/>
				<radialGradient id="SVGID_12_" cx="153.2946" cy="103.7364" r="190.4869" gradientUnits="userSpaceOnUse">
					<stop  offset="0.1935" style="stop-color:#EBEBEB"/>
					<stop  offset="0.3387" style="stop-color:#E6E6E6"/>
					<stop  offset="0.6613" style="stop-color:#EAEAEA"/>
					<stop  offset="0.8065" style="stop-color:#F0F0F1"/>
				</radialGradient>
				<path class="st11" d="M219.4,108.6c12.2,42.1-12,86.2-54.1,98.4c-42.1,12.2-86.1-12-98.4-54.1c-12.2-42.1,12-86.1,54.1-98.4
					C163.1,42.2,207.2,66.5,219.4,108.6z"/>
				<radialGradient id="SVGID_13_" cx="153.5506" cy="108.401" r="186.4901" gradientUnits="userSpaceOnUse">
					<stop  offset="0.1935" style="stop-color:#ECECED"/>
					<stop  offset="0.3387" style="stop-color:#E7E7E7"/>
					<stop  offset="0.6613" style="stop-color:#E9E9E9"/>
					<stop  offset="0.8065" style="stop-color:#EFEFEF"/>
				</radialGradient>
				<path class="st12" d="M217.8,106.6c13.3,41.2-9.3,85.5-50.5,98.8c-41.2,13.3-85.4-9.3-98.8-50.5C55.2,113.6,77.8,69.4,119,56
					C160.2,42.7,204.5,65.3,217.8,106.6z"/>
				<radialGradient id="SVGID_14_" cx="153.8076" cy="112.945" r="182.5149" gradientUnits="userSpaceOnUse">
					<stop  offset="0.1935" style="stop-color:#EEEEEE"/>
					<stop  offset="0.3387" style="stop-color:#E8E8E8"/>
					<stop  offset="0.6613" style="stop-color:#E8E8E8"/>
					<stop  offset="0.8065" style="stop-color:#EEEEEE"/>
				</radialGradient>
				<path class="st13" d="M216.2,104.6c14.4,40.3-6.6,84.8-46.9,99.2c-40.3,14.4-84.7-6.6-99.2-46.9c-14.4-40.3,6.6-84.8,46.9-99.2
					C157.3,43.2,201.7,64.2,216.2,104.6z"/>
				<radialGradient id="SVGID_15_" cx="154.067" cy="117.3799" r="178.5777" gradientUnits="userSpaceOnUse">
					<stop  offset="0.1935" style="stop-color:#EFEFEF"/>
					<stop  offset="0.3387" style="stop-color:#E9E9E9"/>
					<stop  offset="0.6613" style="stop-color:#E7E7E7"/>
					<stop  offset="0.8065" style="stop-color:#ECECED"/>
				</radialGradient>
				<path class="st14" d="M214.6,102.5c15.5,39.5-3.8,84.1-43.3,99.6c-39.5,15.5-84-3.8-99.6-43.3c-15.5-39.5,3.8-84.1,43.3-99.6
					C154.4,43.7,199,63.1,214.6,102.5z"/>
				<radialGradient id="SVGID_16_" cx="154.3304" cy="121.718" r="174.6938" gradientUnits="userSpaceOnUse">
					<stop  offset="0.1935" style="stop-color:#F0F0F1"/>
					<stop  offset="0.3387" style="stop-color:#EAEAEA"/>
					<stop  offset="0.6613" style="stop-color:#E6E6E6"/>
					<stop  offset="0.8065" style="stop-color:#EBEBEB"/>
				</radialGradient>
				<path class="st15" d="M213,100.5c16.7,38.6-1.1,83.4-39.7,100c-38.6,16.7-83.3-1.1-100-39.7c-16.7-38.6,1.1-83.4,39.7-100
					C151.5,44.2,196.3,62,213,100.5z"/>
				<radialGradient id="SVGID_17_" cx="154.5992" cy="125.9723" r="170.8781" gradientUnits="userSpaceOnUse">
					<stop  offset="0.1935" style="stop-color:#F2F2F2"/>
					<stop  offset="0.3387" style="stop-color:#EAEBEB"/>
					<stop  offset="0.6613" style="stop-color:#E5E5E5"/>
					<stop  offset="0.8065" style="stop-color:#EAEAEA"/>
				</radialGradient>
				<path class="st16" d="M211.4,98.5c17.8,37.7,1.6,82.7-36.1,100.4c-37.7,17.8-82.6,1.6-100.4-36.1C57.1,125.2,73.3,80.2,111,62.4
					C148.7,44.7,193.6,60.8,211.4,98.5z"/>
				<radialGradient id="SVGID_18_" cx="154.8748" cy="130.1559" r="167.1448" gradientUnits="userSpaceOnUse">
					<stop  offset="0.1935" style="stop-color:#F3F3F3"/>
					<stop  offset="0.3387" style="stop-color:#EBEBEC"/>
					<stop  offset="0.6613" style="stop-color:#E4E4E4"/>
					<stop  offset="0.8065" style="stop-color:#E8E8E8"/>
				</radialGradient>
				<path class="st17" d="M209.8,96.5c18.9,36.8,4.3,82-32.5,100.8c-36.8,18.9-82,4.3-100.8-32.5C57.6,128,72.1,82.9,109,64
					C145.8,45.2,190.9,59.7,209.8,96.5z"/>
				<radialGradient id="SVGID_19_" cx="155.1588" cy="134.2828" r="163.5082" gradientUnits="userSpaceOnUse">
					<stop  offset="0.1935" style="stop-color:#F5F4F5"/>
					<stop  offset="0.3387" style="stop-color:#ECECED"/>
					<stop  offset="0.6613" style="stop-color:#E3E3E3"/>
					<stop  offset="0.8065" style="stop-color:#E7E7E7"/>
				</radialGradient>
				<path class="st18" d="M208.2,94.5c20,35.9,7.1,81.3-28.9,101.2c-35.9,20-81.3,7.1-101.2-28.9c-20-35.9-7.1-81.3,28.9-101.2
					C142.9,45.7,188.2,58.6,208.2,94.5z"/>
				<radialGradient id="SVGID_20_" cx="155.4527" cy="138.367" r="159.9821" gradientUnits="userSpaceOnUse">
					<stop  offset="0.1935" style="stop-color:#F6F6F6"/>
					<stop  offset="0.3387" style="stop-color:#EDEDED"/>
					<stop  offset="0.6613" style="stop-color:#E2E3E2"/>
					<stop  offset="0.8065" style="stop-color:#E6E6E6"/>
				</radialGradient>
				<path class="st19" d="M206.6,92.5c21.1,35,9.8,80.6-25.3,101.7c-35,21.1-80.6,9.8-101.6-25.3c-21.1-35-9.8-80.6,25.3-101.7
					C140,46.1,185.5,57.5,206.6,92.5z"/>
				<radialGradient id="SVGID_21_" cx="155.7579" cy="142.4231" r="156.5812" gradientUnits="userSpaceOnUse">
					<stop  offset="0.1935" style="stop-color:#F7F7F8"/>
					<stop  offset="0.3387" style="stop-color:#EEEEEE"/>
					<stop  offset="0.6613" style="stop-color:#E2E2E1"/>
					<stop  offset="0.8065" style="stop-color:#E4E4E4"/>
				</radialGradient>
				<path class="st20" d="M205,90.5c22.2,34.2,12.5,79.9-21.7,102.1c-34.2,22.2-79.9,12.5-102.1-21.7C59.1,136.7,68.8,91,102.9,68.8
					C137.1,46.6,182.8,56.3,205,90.5z"/>
				<radialGradient id="SVGID_22_" cx="156.0759" cy="146.4659" r="153.3207" gradientUnits="userSpaceOnUse">
					<stop  offset="0.1935" style="stop-color:#F9F9F9"/>
					<stop  offset="0.3387" style="stop-color:#EFEFEF"/>
					<stop  offset="0.6613" style="stop-color:#E1E1E1"/>
					<stop  offset="0.8065" style="stop-color:#E3E3E3"/>
				</radialGradient>
				<path class="st21" d="M203.4,88.5c23.3,33.3,15.2,79.2-18,102.5c-33.3,23.3-79.2,15.2-102.5-18c-23.3-33.3-15.2-79.2,18-102.5
					C134.2,47.1,180.1,55.2,203.4,88.5z"/>
				<radialGradient id="SVGID_23_" cx="156.4082" cy="150.5104" r="150.2172" gradientUnits="userSpaceOnUse">
					<stop  offset="0.1935" style="stop-color:#FAFAFA"/>
					<stop  offset="0.3387" style="stop-color:#F0F0F0"/>
					<stop  offset="0.6613" style="stop-color:#E0E0E0"/>
					<stop  offset="0.8065" style="stop-color:#E2E2E1"/>
				</radialGradient>
				<path class="st22" d="M201.8,86.5c24.4,32.4,18,78.5-14.4,102.9c-32.4,24.4-78.5,18-102.9-14.4C60,142.5,66.5,96.5,98.9,72
					C131.3,47.6,177.4,54.1,201.8,86.5z"/>
				<radialGradient id="SVGID_24_" cx="156.7561" cy="154.5716" r="147.2894" gradientUnits="userSpaceOnUse">
					<stop  offset="0.1935" style="stop-color:#FBFBFB"/>
					<stop  offset="0.3387" style="stop-color:#F1F1F1"/>
					<stop  offset="0.6613" style="stop-color:#DFDFDF"/>
					<stop  offset="0.8065" style="stop-color:#E0E0E0"/>
				</radialGradient>
				<path class="st23" d="M200.2,84.5c25.5,31.5,20.7,77.8-10.8,103.3c-31.5,25.5-77.8,20.7-103.3-10.8
					C60.5,145.4,65.4,99.2,96.9,73.6C128.4,48.1,174.6,52.9,200.2,84.5z"/>
				<radialGradient id="SVGID_25_" cx="157.121" cy="158.6645" r="144.5587" gradientUnits="userSpaceOnUse">
					<stop  offset="0.1935" style="stop-color:#FDFDFD"/>
					<stop  offset="0.3387" style="stop-color:#F2F2F2"/>
					<stop  offset="0.6613" style="stop-color:#DEDEDE"/>
					<stop  offset="0.8065" style="stop-color:#DFDFDF"/>
				</radialGradient>
				<path class="st24" d="M198.6,82.4c26.6,30.6,23.4,77.1-7.2,103.7c-30.6,26.7-77.1,23.4-103.7-7.2C61,148.3,64.2,101.9,94.9,75.2
					C125.5,48.6,171.9,51.8,198.6,82.4z"/>
				<radialGradient id="SVGID_26_" cx="157.5041" cy="162.804" r="142.0501" gradientUnits="userSpaceOnUse">
					<stop  offset="0.1935" style="stop-color:#FEFEFE"/>
					<stop  offset="0.3387" style="stop-color:#F3F3F3"/>
					<stop  offset="0.6613" style="stop-color:#DDDDDD"/>
					<stop  offset="0.8065" style="stop-color:#DDDEDD"/>
				</radialGradient>
				<path class="st25" d="M197,80.4c27.8,29.8,26.1,76.4-3.6,104.1c-29.7,27.8-76.4,26.1-104.1-3.6c-27.8-29.7-26.1-76.4,3.6-104.1
					C122.6,49.1,169.2,50.7,197,80.4z"/>
				<radialGradient id="SVGID_27_" cx="157.9066" cy="167.0049" r="139.7931" gradientUnits="userSpaceOnUse">
					<stop  offset="0.1935" style="stop-color:#FFFFFF"/>
					<stop  offset="0.3278" style="stop-color:#F4F4F5"/>
					<stop  offset="0.6613" style="stop-color:#DCDCDC"/>
				</radialGradient>
				<path class="st26" d="M195.4,78.4c28.9,28.9,28.9,75.7,0,104.5c-28.9,28.9-75.7,28.9-104.5,0C62,154.1,62,107.3,90.9,78.4
					C119.7,49.6,166.5,49.6,195.4,78.4z"/>
			</g>
		</g>
	</g>
	<g id="XMLID_237_">
		
			<image style="overflow:visible;opacity:0.7;" width="302" height="532" xlink:href="576929BA.png"  transform="matrix(0.24 0 0 0.24 107.9819 71.5484)">
		</image>
		<g>
			<g>
				<path id="XMLID_13_" class="st27" d="M149,111.8v-8.3c0-4,2.7-5,4.6-5c1.9,0,11.6,0,11.6,0V80.8l-16-0.1
					c-17.8,0-21.8,13.2-21.8,21.7v9.4h-10.3v12.5v8.2h10.4c0,23.5,0,51.7,0,51.7h20.7c0,0,0-28.6,0-51.7h15.4l0.7-8.1l1.1-12.6H149z
					"/>
			</g>
		</g>
	</g>
</g>
</svg>
