<?xml version="1.0" encoding="utf-8"?>
<!-- Generator: Adobe Illustrator 22.0.0, SVG Export Plug-In . SVG Version: 6.00 Build 0)  -->
<svg version="1.1" id="Layer_1" xmlns="http://www.w3.org/2000/svg" xmlns:xlink="http://www.w3.org/1999/xlink" x="0px" y="0px"
	 viewBox="0 0 283.5 283.5" style="enable-background:new 0 0 283.5 283.5;" xml:space="preserve">
<style type="text/css">
	.st0{fill:url(#SVGID_1_);}
	.st1{fill:url(#SVGID_2_);}
	.st2{fill:url(#SVGID_3_);}
	.st3{fill:url(#SVGID_4_);}
	.st4{fill:url(#SVGID_5_);}
	.st5{fill:url(#SVGID_6_);}
	.st6{fill:url(#SVGID_7_);}
	.st7{fill:url(#SVGID_8_);}
	.st8{fill:url(#SVGID_9_);}
	.st9{fill:url(#SVGID_10_);}
	.st10{fill:url(#SVGID_11_);}
	.st11{fill:url(#SVGID_12_);}
	.st12{fill:url(#SVGID_13_);}
	.st13{fill:url(#SVGID_14_);}
	.st14{fill:url(#SVGID_15_);}
	.st15{fill:url(#SVGID_16_);}
	.st16{fill:url(#SVGID_17_);}
	.st17{fill:url(#SVGID_18_);}
	.st18{fill:url(#SVGID_19_);}
	.st19{fill:url(#SVGID_20_);}
	.st20{fill:url(#SVGID_21_);}
	.st21{fill:url(#SVGID_22_);}
	.st22{fill:url(#SVGID_23_);}
	.st23{fill:url(#SVGID_24_);}
	.st24{fill:url(#SVGID_25_);}
	.st25{fill:url(#SVGID_26_);}
	.st26{fill:url(#SVGID_27_);}
	.st27{fill:#FFFFFF;}
</style>
<g>
	<g>
		<g>
			<g>
				<radialGradient id="SVGID_1_" cx="148.5225" cy="53.128" r="230.4455" gradientUnits="userSpaceOnUse">
					<stop  offset="0.3387" style="stop-color:#DCDCDC"/>
					<stop  offset="0.6722" style="stop-color:#F4F4F5"/>
					<stop  offset="0.8065" style="stop-color:#FFFFFF"/>
				</radialGradient>
				<path class="st0" d="M47.6,142.1c0-51.8,42-93.8,93.8-93.8c51.8,0,93.8,42,93.8,93.8c0,51.8-42,93.8-93.8,93.8
					C89.6,236,47.6,194,47.6,142.1z"/>
				<radialGradient id="SVGID_2_" cx="148.846" cy="59.7328" r="227.5073" gradientUnits="userSpaceOnUse">
					<stop  offset="0.1935" style="stop-color:#DDDEDD"/>
					<stop  offset="0.3387" style="stop-color:#DDDDDD"/>
					<stop  offset="0.6613" style="stop-color:#F3F3F3"/>
					<stop  offset="0.8065" style="stop-color:#FEFEFE"/>
				</radialGradient>
				<path class="st1" d="M233.7,140.1c1.1,50.9-39.3,93.1-90.2,94.2c-50.9,1.1-93.1-39.3-94.2-90.2C48.1,93.2,88.5,51,139.4,49.9
					C190.4,48.8,232.6,89.2,233.7,140.1z"/>
				<radialGradient id="SVGID_3_" cx="149.1583" cy="66.1244" r="224.3611" gradientUnits="userSpaceOnUse">
					<stop  offset="0.1935" style="stop-color:#DFDFDF"/>
					<stop  offset="0.3387" style="stop-color:#DEDEDE"/>
					<stop  offset="0.6613" style="stop-color:#F2F2F2"/>
					<stop  offset="0.8065" style="stop-color:#FDFDFD"/>
				</radialGradient>
				<path class="st2" d="M232.1,138.1c2.2,50.1-36.6,92.4-86.6,94.7C95.4,235,53,196.2,50.8,146.2c-2.2-50.1,36.6-92.4,86.6-94.7
					C187.5,49.3,229.9,88.1,232.1,138.1z"/>
				<radialGradient id="SVGID_4_" cx="149.4603" cy="72.3088" r="221.0311" gradientUnits="userSpaceOnUse">
					<stop  offset="0.1935" style="stop-color:#E0E0E0"/>
					<stop  offset="0.3387" style="stop-color:#DFDFDF"/>
					<stop  offset="0.6613" style="stop-color:#F1F1F1"/>
					<stop  offset="0.8065" style="stop-color:#FBFBFB"/>
				</radialGradient>
				<path class="st3" d="M230.5,136.1c3.3,49.2-33.8,91.7-83,95.1c-49.2,3.3-91.7-33.8-95.1-83c-3.3-49.2,33.8-91.7,83-95.1
					C184.6,49.8,227.2,86.9,230.5,136.1z"/>
				<radialGradient id="SVGID_5_" cx="149.7529" cy="78.2923" r="217.5411" gradientUnits="userSpaceOnUse">
					<stop  offset="0.1935" style="stop-color:#E2E2E1"/>
					<stop  offset="0.3387" style="stop-color:#E0E0E0"/>
					<stop  offset="0.6613" style="stop-color:#F0F0F0"/>
					<stop  offset="0.8065" style="stop-color:#FAFAFA"/>
				</radialGradient>
				<path class="st4" d="M228.9,134.1c4.4,48.3-31.1,91-79.4,95.5c-48.3,4.4-91-31.1-95.5-79.4c-4.4-48.3,31.1-91,79.4-95.5
					C181.7,50.3,224.5,85.8,228.9,134.1z"/>
				<radialGradient id="SVGID_6_" cx="150.037" cy="84.0817" r="213.9143" gradientUnits="userSpaceOnUse">
					<stop  offset="0.1935" style="stop-color:#E3E3E3"/>
					<stop  offset="0.3387" style="stop-color:#E1E1E1"/>
					<stop  offset="0.6613" style="stop-color:#EFEFEF"/>
					<stop  offset="0.8065" style="stop-color:#F9F9F9"/>
				</radialGradient>
				<path class="st5" d="M227.3,132.1c5.6,47.4-28.4,90.3-75.8,95.9c-47.4,5.6-90.3-28.4-95.9-75.8c-5.6-47.4,28.4-90.3,75.8-95.9
					C178.8,50.8,221.7,84.7,227.3,132.1z"/>
				<radialGradient id="SVGID_7_" cx="150.3136" cy="89.6844" r="210.173" gradientUnits="userSpaceOnUse">
					<stop  offset="0.1935" style="stop-color:#E4E4E4"/>
					<stop  offset="0.3387" style="stop-color:#E2E2E1"/>
					<stop  offset="0.6613" style="stop-color:#EEEEEE"/>
					<stop  offset="0.8065" style="stop-color:#F7F7F8"/>
				</radialGradient>
				<path class="st6" d="M225.7,130.1c6.7,46.5-25.7,89.6-72.2,96.3c-46.5,6.7-89.6-25.7-96.3-72.2c-6.7-46.5,25.7-89.6,72.2-96.3
					C175.9,51.2,219,83.6,225.7,130.1z"/>
				<radialGradient id="SVGID_8_" cx="150.5838" cy="95.1081" r="206.3391" gradientUnits="userSpaceOnUse">
					<stop  offset="0.1935" style="stop-color:#E6E6E6"/>
					<stop  offset="0.3387" style="stop-color:#E2E3E2"/>
					<stop  offset="0.6613" style="stop-color:#EDEDED"/>
					<stop  offset="0.8065" style="stop-color:#F6F6F6"/>
				</radialGradient>
				<path class="st7" d="M224.1,128.1c7.8,45.6-22.9,88.9-68.6,96.7c-45.6,7.8-88.9-22.9-96.7-68.6c-7.8-45.6,22.9-88.9,68.6-96.7
					C173,51.7,216.3,82.4,224.1,128.1z"/>
				<radialGradient id="SVGID_9_" cx="150.8487" cy="100.3613" r="202.4337" gradientUnits="userSpaceOnUse">
					<stop  offset="0.1935" style="stop-color:#E7E7E7"/>
					<stop  offset="0.3387" style="stop-color:#E3E3E3"/>
					<stop  offset="0.6613" style="stop-color:#ECECED"/>
					<stop  offset="0.8065" style="stop-color:#F5F4F5"/>
				</radialGradient>
				<path class="st8" d="M222.5,126.1c8.9,44.8-20.2,88.2-65,97.1c-44.8,8.9-88.2-20.2-97.1-65c-8.9-44.8,20.2-88.2,65-97.1
					C170.1,52.2,213.6,81.3,222.5,126.1z"/>
				<radialGradient id="SVGID_10_" cx="151.1094" cy="105.4526" r="198.477" gradientUnits="userSpaceOnUse">
					<stop  offset="0.1935" style="stop-color:#E8E8E8"/>
					<stop  offset="0.3387" style="stop-color:#E4E4E4"/>
					<stop  offset="0.6613" style="stop-color:#EBEBEC"/>
					<stop  offset="0.8065" style="stop-color:#F3F3F3"/>
				</radialGradient>
				<path class="st9" d="M220.9,124c10,43.9-17.5,87.5-61.4,97.5c-43.9,10-87.5-17.5-97.5-61.4c-10-43.9,17.5-87.5,61.4-97.5
					C167.2,52.7,210.9,80.2,220.9,124z"/>
				<radialGradient id="SVGID_11_" cx="151.3673" cy="110.3915" r="194.4885" gradientUnits="userSpaceOnUse">
					<stop  offset="0.1935" style="stop-color:#EAEAEA"/>
					<stop  offset="0.3387" style="stop-color:#E5E5E5"/>
					<stop  offset="0.6613" style="stop-color:#EAEBEB"/>
					<stop  offset="0.8065" style="stop-color:#F2F2F2"/>
				</radialGradient>
				<path class="st10" d="M219.3,122c11.1,43-14.8,86.8-57.7,98c-43,11.1-86.8-14.8-97.9-57.7c-11.1-43,14.8-86.8,57.7-98
					C164.3,53.2,208.2,79,219.3,122z"/>
				<radialGradient id="SVGID_12_" cx="151.6236" cy="115.188" r="190.4869" gradientUnits="userSpaceOnUse">
					<stop  offset="0.1935" style="stop-color:#EBEBEB"/>
					<stop  offset="0.3387" style="stop-color:#E6E6E6"/>
					<stop  offset="0.6613" style="stop-color:#EAEAEA"/>
					<stop  offset="0.8065" style="stop-color:#F0F0F1"/>
				</radialGradient>
				<path class="st11" d="M217.7,120c12.2,42.1-12,86.2-54.1,98.4c-42.1,12.2-86.1-12-98.4-54.1c-12.2-42.1,12-86.1,54.1-98.4
					C161.4,53.7,205.5,77.9,217.7,120z"/>
				<radialGradient id="SVGID_13_" cx="151.8795" cy="119.8527" r="186.4901" gradientUnits="userSpaceOnUse">
					<stop  offset="0.1935" style="stop-color:#ECECED"/>
					<stop  offset="0.3387" style="stop-color:#E7E7E7"/>
					<stop  offset="0.6613" style="stop-color:#E9E9E9"/>
					<stop  offset="0.8065" style="stop-color:#EFEFEF"/>
				</radialGradient>
				<path class="st12" d="M216.1,118c13.3,41.2-9.3,85.5-50.5,98.8c-41.2,13.3-85.4-9.3-98.8-50.5c-13.3-41.2,9.3-85.4,50.5-98.8
					C158.6,54.2,202.8,76.8,216.1,118z"/>
				<radialGradient id="SVGID_14_" cx="152.1365" cy="124.3966" r="182.5149" gradientUnits="userSpaceOnUse">
					<stop  offset="0.1935" style="stop-color:#EEEEEE"/>
					<stop  offset="0.3387" style="stop-color:#E8E8E8"/>
					<stop  offset="0.6613" style="stop-color:#E8E8E8"/>
					<stop  offset="0.8065" style="stop-color:#EEEEEE"/>
				</radialGradient>
				<path class="st13" d="M214.5,116c14.4,40.3-6.6,84.8-46.9,99.2c-40.3,14.4-84.7-6.6-99.2-46.9C54,127.9,75,83.5,115.3,69.1
					C155.7,54.7,200.1,75.7,214.5,116z"/>
				<radialGradient id="SVGID_15_" cx="152.396" cy="128.8315" r="178.5777" gradientUnits="userSpaceOnUse">
					<stop  offset="0.1935" style="stop-color:#EFEFEF"/>
					<stop  offset="0.3387" style="stop-color:#E9E9E9"/>
					<stop  offset="0.6613" style="stop-color:#E7E7E7"/>
					<stop  offset="0.8065" style="stop-color:#ECECED"/>
				</radialGradient>
				<path class="st14" d="M212.9,114c15.5,39.5-3.8,84.1-43.3,99.6c-39.5,15.5-84-3.8-99.6-43.3c-15.5-39.5,3.8-84.1,43.3-99.6
					C152.8,55.1,197.4,74.5,212.9,114z"/>
				<radialGradient id="SVGID_16_" cx="152.6593" cy="133.1696" r="174.6938" gradientUnits="userSpaceOnUse">
					<stop  offset="0.1935" style="stop-color:#F0F0F1"/>
					<stop  offset="0.3387" style="stop-color:#EAEAEA"/>
					<stop  offset="0.6613" style="stop-color:#E6E6E6"/>
					<stop  offset="0.8065" style="stop-color:#EBEBEB"/>
				</radialGradient>
				<path class="st15" d="M211.3,112c16.7,38.6-1.1,83.4-39.7,100c-38.6,16.7-83.3-1.1-100-39.7c-16.7-38.6,1.1-83.4,39.7-100
					C149.9,55.6,194.7,73.4,211.3,112z"/>
				<radialGradient id="SVGID_17_" cx="152.9281" cy="137.4239" r="170.8781" gradientUnits="userSpaceOnUse">
					<stop  offset="0.1935" style="stop-color:#F2F2F2"/>
					<stop  offset="0.3387" style="stop-color:#EAEBEB"/>
					<stop  offset="0.6613" style="stop-color:#E5E5E5"/>
					<stop  offset="0.8065" style="stop-color:#EAEAEA"/>
				</radialGradient>
				<path class="st16" d="M209.7,110c17.8,37.7,1.6,82.7-36.1,100.4C135.9,228.2,91,212,73.2,174.3c-17.8-37.7-1.6-82.7,36.1-100.4
					C147,56.1,191.9,72.3,209.7,110z"/>
				<radialGradient id="SVGID_18_" cx="153.2037" cy="141.6075" r="167.1448" gradientUnits="userSpaceOnUse">
					<stop  offset="0.1935" style="stop-color:#F3F3F3"/>
					<stop  offset="0.3387" style="stop-color:#EBEBEC"/>
					<stop  offset="0.6613" style="stop-color:#E4E4E4"/>
					<stop  offset="0.8065" style="stop-color:#E8E8E8"/>
				</radialGradient>
				<path class="st17" d="M208.1,108c18.9,36.8,4.3,82-32.5,100.8c-36.8,18.9-82,4.3-100.8-32.5c-18.9-36.8-4.3-82,32.5-100.8
					C144.1,56.6,189.2,71.2,208.1,108z"/>
				<radialGradient id="SVGID_19_" cx="153.4877" cy="145.7344" r="163.5082" gradientUnits="userSpaceOnUse">
					<stop  offset="0.1935" style="stop-color:#F5F4F5"/>
					<stop  offset="0.3387" style="stop-color:#ECECED"/>
					<stop  offset="0.6613" style="stop-color:#E3E3E3"/>
					<stop  offset="0.8065" style="stop-color:#E7E7E7"/>
				</radialGradient>
				<path class="st18" d="M206.5,106c20,35.9,7.1,81.3-28.9,101.2c-35.9,20-81.3,7.1-101.2-28.9c-20-35.9-7.1-81.3,28.9-101.2
					C141.2,57.1,186.5,70,206.5,106z"/>
				<radialGradient id="SVGID_20_" cx="153.7816" cy="149.8186" r="159.9821" gradientUnits="userSpaceOnUse">
					<stop  offset="0.1935" style="stop-color:#F6F6F6"/>
					<stop  offset="0.3387" style="stop-color:#EDEDED"/>
					<stop  offset="0.6613" style="stop-color:#E2E3E2"/>
					<stop  offset="0.8065" style="stop-color:#E6E6E6"/>
				</radialGradient>
				<path class="st19" d="M204.9,103.9c21.1,35,9.8,80.6-25.3,101.7c-35,21.1-80.6,9.8-101.6-25.3c-21.1-35-9.8-80.6,25.3-101.7
					C138.3,57.6,183.8,68.9,204.9,103.9z"/>
				<radialGradient id="SVGID_21_" cx="154.0868" cy="153.8747" r="156.5812" gradientUnits="userSpaceOnUse">
					<stop  offset="0.1935" style="stop-color:#F7F7F8"/>
					<stop  offset="0.3387" style="stop-color:#EEEEEE"/>
					<stop  offset="0.6613" style="stop-color:#E2E2E1"/>
					<stop  offset="0.8065" style="stop-color:#E4E4E4"/>
				</radialGradient>
				<path class="st20" d="M203.3,101.9c22.2,34.2,12.5,79.9-21.7,102.1c-34.2,22.2-79.9,12.5-102.1-21.7
					c-22.2-34.2-12.5-79.9,21.7-102.1C135.4,58.1,181.1,67.8,203.3,101.9z"/>
				<radialGradient id="SVGID_22_" cx="154.4049" cy="157.9175" r="153.3207" gradientUnits="userSpaceOnUse">
					<stop  offset="0.1935" style="stop-color:#F9F9F9"/>
					<stop  offset="0.3387" style="stop-color:#EFEFEF"/>
					<stop  offset="0.6613" style="stop-color:#E1E1E1"/>
					<stop  offset="0.8065" style="stop-color:#E3E3E3"/>
				</radialGradient>
				<path class="st21" d="M201.7,99.9c23.3,33.3,15.2,79.2-18,102.5c-33.3,23.3-79.2,15.2-102.5-18c-23.3-33.3-15.2-79.2,18-102.5
					C132.5,58.6,178.4,66.6,201.7,99.9z"/>
				<radialGradient id="SVGID_23_" cx="154.7372" cy="161.962" r="150.2172" gradientUnits="userSpaceOnUse">
					<stop  offset="0.1935" style="stop-color:#FAFAFA"/>
					<stop  offset="0.3387" style="stop-color:#F0F0F0"/>
					<stop  offset="0.6613" style="stop-color:#E0E0E0"/>
					<stop  offset="0.8065" style="stop-color:#E2E2E1"/>
				</radialGradient>
				<path class="st22" d="M200.1,97.9c24.4,32.4,18,78.5-14.4,102.9c-32.4,24.4-78.5,18-102.9-14.4c-24.4-32.4-18-78.5,14.4-102.9
					C129.6,59.1,175.7,65.5,200.1,97.9z"/>
				<radialGradient id="SVGID_24_" cx="155.0851" cy="166.0232" r="147.2894" gradientUnits="userSpaceOnUse">
					<stop  offset="0.1935" style="stop-color:#FBFBFB"/>
					<stop  offset="0.3387" style="stop-color:#F1F1F1"/>
					<stop  offset="0.6613" style="stop-color:#DFDFDF"/>
					<stop  offset="0.8065" style="stop-color:#E0E0E0"/>
				</radialGradient>
				<path class="st23" d="M198.5,95.9c25.5,31.5,20.7,77.8-10.8,103.3c-31.5,25.5-77.8,20.7-103.3-10.8
					c-25.5-31.5-20.7-77.8,10.8-103.3C126.7,59.5,173,64.4,198.5,95.9z"/>
				<radialGradient id="SVGID_25_" cx="155.4499" cy="170.1161" r="144.5587" gradientUnits="userSpaceOnUse">
					<stop  offset="0.1935" style="stop-color:#FDFDFD"/>
					<stop  offset="0.3387" style="stop-color:#F2F2F2"/>
					<stop  offset="0.6613" style="stop-color:#DEDEDE"/>
					<stop  offset="0.8065" style="stop-color:#DFDFDF"/>
				</radialGradient>
				<path class="st24" d="M196.9,93.9c26.6,30.6,23.4,77.1-7.2,103.7c-30.6,26.7-77.1,23.4-103.7-7.2
					c-26.6-30.6-23.4-77.1,7.2-103.7C123.8,60,170.3,63.3,196.9,93.9z"/>
				<radialGradient id="SVGID_26_" cx="155.833" cy="174.2556" r="142.0501" gradientUnits="userSpaceOnUse">
					<stop  offset="0.1935" style="stop-color:#FEFEFE"/>
					<stop  offset="0.3387" style="stop-color:#F3F3F3"/>
					<stop  offset="0.6613" style="stop-color:#DDDDDD"/>
					<stop  offset="0.8065" style="stop-color:#DDDEDD"/>
				</radialGradient>
				<path class="st25" d="M195.3,91.9c27.8,29.8,26.1,76.4-3.6,104.1c-29.7,27.8-76.4,26.1-104.1-3.6C59.8,162.6,61.4,116,91.2,88.3
					C120.9,60.5,167.6,62.1,195.3,91.9z"/>
				<radialGradient id="SVGID_27_" cx="156.2355" cy="178.4565" r="139.7931" gradientUnits="userSpaceOnUse">
					<stop  offset="0.1935" style="stop-color:#FFFFFF"/>
					<stop  offset="0.3278" style="stop-color:#F4F4F5"/>
					<stop  offset="0.6613" style="stop-color:#DCDCDC"/>
				</radialGradient>
				<path class="st26" d="M193.7,89.9c28.9,28.9,28.9,75.7,0,104.5c-28.9,28.9-75.7,28.9-104.5,0c-28.9-28.9-28.9-75.7,0-104.5
					C118.1,61,164.9,61,193.7,89.9z"/>
			</g>
		</g>
	</g>
	<g>
		
			<image style="overflow:visible;opacity:0.7;" width="498" height="499" xlink:href="BA1174BE.png"  transform="matrix(0.24 0 0 0.24 88.08 86.64)">
		</image>
		<g>
			<g>
				<path class="st27" d="M118.4,191.5c-0.9-0.1-1.8-0.2-2.6-0.3c-6.7-1.1-11.8-4.6-15.3-10.3c-2.4-3.9-3.4-8.2-3.1-12.8
					c0.3-5.2,2.2-9.9,5.5-14c1.6-2,3.5-3.8,5.3-5.6c5-5,10-10,15-15c3.9-3.9,8.5-6.4,13.9-7.2c7.4-1.1,13.8,0.8,19.2,6
					c2.4,2.3,2.4,6.1,0.2,8.5c-2.2,2.4-6,2.5-8.4,0.3c-1.7-1.6-3.6-2.6-5.9-2.9c-3.2-0.4-6.1,0.4-8.6,2.3c-1.2,0.9-2.3,2-3.4,3.1
					c-5.7,5.7-11.4,11.4-17,17.1c-2.5,2.5-3.9,5.5-3.8,9.1c0.1,4.8,4,9.1,8.7,9.5c3.1,0.3,5.9-0.6,8.4-2.4c0.7-0.5,1.3-1.1,1.9-1.6
					c3.4-3.3,6.7-6.7,10.1-10.1c0.1-0.1,0.3-0.3,0.3-0.3c4.7,2.6,9.6,3.6,14.8,2.2c0,0-0.1,0.1-0.2,0.2c-5.7,5.7-11.3,11.4-17,17
					c-3.6,3.6-8,5.8-13.1,6.7c-0.8,0.1-1.7,0.2-2.5,0.3c-0.2,0-0.4,0.1-0.6,0.1C119.6,191.5,119,191.5,118.4,191.5z"/>
				<path class="st27" d="M151.3,122.6c-4.7-2.7-9.6-3.6-14.8-2.3c0.1-0.1,0.3-0.3,0.4-0.4c5.4-5.4,10.9-10.9,16.3-16.3
					c3.9-3.8,8.4-6.4,13.8-7.3c11.6-1.9,22.4,5.1,25.1,16.4c1.8,7.7-0.1,14.7-5.1,20.8c-1.8,2.2-4,4.2-6,6.2
					c-4.5,4.5-9.1,9-13.7,13.6c-3.3,3.3-7,5.9-11.6,7.2c-7.4,2-14.3,0.9-20.4-3.9c-1.2-0.9-2.4-2-3-3.5c-1.1-2.7-0.2-5.7,2.1-7.3
					c2.3-1.6,5.5-1.5,7.6,0.5c1.6,1.5,3.3,2.5,5.5,2.8c4,0.6,7.5-0.6,10.3-3.4c3.3-3.2,6.6-6.6,9.9-9.9c3-3,6-6,9-9
					c2-2.1,3.4-4.5,3.9-7.3c0.9-5.1-2.6-10.3-7.6-11.3c-3.7-0.8-7,0.3-9.8,2.6c-2,1.7-3.7,3.6-5.5,5.4c-2.1,2.1-4.1,4.1-6.2,6.2
					C151.3,122.6,151.2,122.6,151.3,122.6z"/>
			</g>
		</g>
	</g>
</g>
</svg>
