<?xml version="1.0" encoding="utf-8"?>
<!-- Generator: Adobe Illustrator 22.0.0, SVG Export Plug-In . SVG Version: 6.00 Build 0)  -->
<svg version="1.1" id="Layer_1" xmlns="http://www.w3.org/2000/svg" xmlns:xlink="http://www.w3.org/1999/xlink" x="0px" y="0px"
	 viewBox="0 0 283.5 283.5" style="enable-background:new 0 0 283.5 283.5;" xml:space="preserve">
<style type="text/css">
	.st0{fill:url(#SVGID_1_);}
	.st1{fill:url(#SVGID_2_);}
	.st2{fill:url(#SVGID_3_);}
	.st3{fill:url(#SVGID_4_);}
	.st4{fill:url(#SVGID_5_);}
	.st5{fill:url(#SVGID_6_);}
	.st6{fill:url(#SVGID_7_);}
	.st7{fill:url(#SVGID_8_);}
	.st8{fill:url(#SVGID_9_);}
	.st9{fill:url(#SVGID_10_);}
	.st10{fill:url(#SVGID_11_);}
	.st11{fill:url(#SVGID_12_);}
	.st12{fill:url(#SVGID_13_);}
	.st13{fill:url(#SVGID_14_);}
	.st14{fill:url(#SVGID_15_);}
	.st15{fill:url(#SVGID_16_);}
	.st16{fill:url(#SVGID_17_);}
	.st17{fill:url(#SVGID_18_);}
	.st18{fill:url(#SVGID_19_);}
	.st19{fill:url(#SVGID_20_);}
	.st20{fill:url(#SVGID_21_);}
	.st21{fill:url(#SVGID_22_);}
	.st22{fill:url(#SVGID_23_);}
	.st23{fill:url(#SVGID_24_);}
	.st24{fill:url(#SVGID_25_);}
	.st25{fill:url(#SVGID_26_);}
	.st26{fill:url(#SVGID_27_);}
	.st27{fill:#F9FCFF;}
	.st28{fill:#FFFFFF;}
	.st29{fill:#C2C1C1;}
</style>
<g>
	<g>
		<g>
			<radialGradient id="SVGID_1_" cx="148.987" cy="53.6634" r="230.4455" gradientUnits="userSpaceOnUse">
				<stop  offset="0.3387" style="stop-color:#DCDCDC"/>
				<stop  offset="0.6722" style="stop-color:#F4F4F5"/>
				<stop  offset="0.8065" style="stop-color:#FFFFFF"/>
			</radialGradient>
			<path class="st0" d="M48.1,142.7c0-51.8,42-93.8,93.8-93.8c51.8,0,93.8,42,93.8,93.8c0,51.8-42,93.8-93.8,93.8
				C90.1,236.5,48.1,194.5,48.1,142.7z"/>
			<radialGradient id="SVGID_2_" cx="149.3106" cy="60.2683" r="227.5073" gradientUnits="userSpaceOnUse">
				<stop  offset="0.1935" style="stop-color:#DDDEDD"/>
				<stop  offset="0.3387" style="stop-color:#DDDDDD"/>
				<stop  offset="0.6613" style="stop-color:#F3F3F3"/>
				<stop  offset="0.8065" style="stop-color:#FEFEFE"/>
			</radialGradient>
			<path class="st1" d="M234.2,140.7c1.1,50.9-39.3,93.1-90.2,94.2C93,236,50.8,195.6,49.7,144.7C48.6,93.7,89,51.6,139.9,50.4
				C190.8,49.3,233,89.7,234.2,140.7z"/>
			<radialGradient id="SVGID_3_" cx="149.6229" cy="66.6599" r="224.3611" gradientUnits="userSpaceOnUse">
				<stop  offset="0.1935" style="stop-color:#DFDFDF"/>
				<stop  offset="0.3387" style="stop-color:#DEDEDE"/>
				<stop  offset="0.6613" style="stop-color:#F2F2F2"/>
				<stop  offset="0.8065" style="stop-color:#FDFDFD"/>
			</radialGradient>
			<path class="st2" d="M232.6,138.7c2.2,50.1-36.6,92.4-86.6,94.7c-50.1,2.2-92.4-36.6-94.7-86.6C49.1,96.6,87.8,54.3,137.9,52
				C188,49.8,230.3,88.6,232.6,138.7z"/>
			<radialGradient id="SVGID_4_" cx="149.9249" cy="72.8442" r="221.0311" gradientUnits="userSpaceOnUse">
				<stop  offset="0.1935" style="stop-color:#E0E0E0"/>
				<stop  offset="0.3387" style="stop-color:#DFDFDF"/>
				<stop  offset="0.6613" style="stop-color:#F1F1F1"/>
				<stop  offset="0.8065" style="stop-color:#FBFBFB"/>
			</radialGradient>
			<path class="st3" d="M231,136.6c3.3,49.2-33.8,91.7-83,95.1c-49.2,3.3-91.7-33.8-95.1-83c-3.3-49.2,33.8-91.7,83-95.1
				C185.1,50.3,227.6,87.5,231,136.6z"/>
			<radialGradient id="SVGID_5_" cx="150.2175" cy="78.8277" r="217.5411" gradientUnits="userSpaceOnUse">
				<stop  offset="0.1935" style="stop-color:#E2E2E1"/>
				<stop  offset="0.3387" style="stop-color:#E0E0E0"/>
				<stop  offset="0.6613" style="stop-color:#F0F0F0"/>
				<stop  offset="0.8065" style="stop-color:#FAFAFA"/>
			</radialGradient>
			<path class="st4" d="M229.4,134.6c4.4,48.3-31.1,91-79.4,95.5c-48.3,4.4-91-31.1-95.5-79.4c-4.4-48.3,31.1-91,79.4-95.5
				C182.2,50.8,224.9,86.3,229.4,134.6z"/>
			<radialGradient id="SVGID_6_" cx="150.5015" cy="84.6171" r="213.9143" gradientUnits="userSpaceOnUse">
				<stop  offset="0.1935" style="stop-color:#E3E3E3"/>
				<stop  offset="0.3387" style="stop-color:#E1E1E1"/>
				<stop  offset="0.6613" style="stop-color:#EFEFEF"/>
				<stop  offset="0.8065" style="stop-color:#F9F9F9"/>
			</radialGradient>
			<path class="st5" d="M227.8,132.6c5.6,47.4-28.4,90.3-75.8,95.9c-47.4,5.6-90.3-28.4-95.9-75.8c-5.6-47.4,28.4-90.3,75.8-95.9
				C179.3,51.3,222.2,85.2,227.8,132.6z"/>
			<radialGradient id="SVGID_7_" cx="150.7781" cy="90.2198" r="210.173" gradientUnits="userSpaceOnUse">
				<stop  offset="0.1935" style="stop-color:#E4E4E4"/>
				<stop  offset="0.3387" style="stop-color:#E2E2E1"/>
				<stop  offset="0.6613" style="stop-color:#EEEEEE"/>
				<stop  offset="0.8065" style="stop-color:#F7F7F8"/>
			</radialGradient>
			<path class="st6" d="M226.2,130.6c6.7,46.5-25.7,89.6-72.2,96.3c-46.5,6.7-89.6-25.7-96.3-72.2c-6.7-46.5,25.7-89.6,72.2-96.3
				C176.4,51.8,219.5,84.1,226.2,130.6z"/>
			<radialGradient id="SVGID_8_" cx="151.0483" cy="95.6436" r="206.3391" gradientUnits="userSpaceOnUse">
				<stop  offset="0.1935" style="stop-color:#E6E6E6"/>
				<stop  offset="0.3387" style="stop-color:#E2E3E2"/>
				<stop  offset="0.6613" style="stop-color:#EDEDED"/>
				<stop  offset="0.8065" style="stop-color:#F6F6F6"/>
			</radialGradient>
			<path class="st7" d="M224.6,128.6c7.8,45.6-22.9,88.9-68.6,96.7c-45.6,7.8-88.9-22.9-96.7-68.6c-7.8-45.6,22.9-88.9,68.6-96.7
				C173.5,52.3,216.8,83,224.6,128.6z"/>
			<radialGradient id="SVGID_9_" cx="151.3132" cy="100.8967" r="202.4337" gradientUnits="userSpaceOnUse">
				<stop  offset="0.1935" style="stop-color:#E7E7E7"/>
				<stop  offset="0.3387" style="stop-color:#E3E3E3"/>
				<stop  offset="0.6613" style="stop-color:#ECECED"/>
				<stop  offset="0.8065" style="stop-color:#F5F4F5"/>
			</radialGradient>
			<path class="st8" d="M223,126.6c8.9,44.8-20.2,88.2-65,97.1c-44.8,8.9-88.2-20.2-97.1-65c-8.9-44.8,20.2-88.2,65-97.1
				C170.6,52.8,214.1,81.8,223,126.6z"/>
			<radialGradient id="SVGID_10_" cx="151.574" cy="105.988" r="198.477" gradientUnits="userSpaceOnUse">
				<stop  offset="0.1935" style="stop-color:#E8E8E8"/>
				<stop  offset="0.3387" style="stop-color:#E4E4E4"/>
				<stop  offset="0.6613" style="stop-color:#EBEBEC"/>
				<stop  offset="0.8065" style="stop-color:#F3F3F3"/>
			</radialGradient>
			<path class="st9" d="M221.4,124.6c10,43.9-17.5,87.5-61.4,97.5c-43.9,10-87.5-17.5-97.5-61.4c-10-43.9,17.5-87.5,61.4-97.5
				C167.7,53.2,211.4,80.7,221.4,124.6z"/>
			<radialGradient id="SVGID_11_" cx="151.8319" cy="110.9269" r="194.4885" gradientUnits="userSpaceOnUse">
				<stop  offset="0.1935" style="stop-color:#EAEAEA"/>
				<stop  offset="0.3387" style="stop-color:#E5E5E5"/>
				<stop  offset="0.6613" style="stop-color:#EAEBEB"/>
				<stop  offset="0.8065" style="stop-color:#F2F2F2"/>
			</radialGradient>
			<path class="st10" d="M219.8,122.6c11.1,43-14.8,86.8-57.7,98c-43,11.1-86.8-14.8-97.9-57.7c-11.1-43,14.8-86.8,57.7-98
				C164.8,53.7,208.7,79.6,219.8,122.6z"/>
			<radialGradient id="SVGID_12_" cx="152.0881" cy="115.7234" r="190.4869" gradientUnits="userSpaceOnUse">
				<stop  offset="0.1935" style="stop-color:#EBEBEB"/>
				<stop  offset="0.3387" style="stop-color:#E6E6E6"/>
				<stop  offset="0.6613" style="stop-color:#EAEAEA"/>
				<stop  offset="0.8065" style="stop-color:#F0F0F1"/>
			</radialGradient>
			<path class="st11" d="M218.2,120.6c12.2,42.1-12,86.2-54.1,98.4c-42.1,12.2-86.1-12-98.4-54.1c-12.2-42.1,12-86.1,54.1-98.4
				C161.9,54.2,206,78.5,218.2,120.6z"/>
			<radialGradient id="SVGID_13_" cx="152.3441" cy="120.3881" r="186.4901" gradientUnits="userSpaceOnUse">
				<stop  offset="0.1935" style="stop-color:#ECECED"/>
				<stop  offset="0.3387" style="stop-color:#E7E7E7"/>
				<stop  offset="0.6613" style="stop-color:#E9E9E9"/>
				<stop  offset="0.8065" style="stop-color:#EFEFEF"/>
			</radialGradient>
			<path class="st12" d="M216.6,118.6c13.3,41.2-9.3,85.5-50.5,98.8c-41.2,13.3-85.4-9.3-98.8-50.5c-13.3-41.2,9.3-85.4,50.5-98.8
				C159,54.7,203.2,77.3,216.6,118.6z"/>
			<radialGradient id="SVGID_14_" cx="152.6011" cy="124.932" r="182.5149" gradientUnits="userSpaceOnUse">
				<stop  offset="0.1935" style="stop-color:#EEEEEE"/>
				<stop  offset="0.3387" style="stop-color:#E8E8E8"/>
				<stop  offset="0.6613" style="stop-color:#E8E8E8"/>
				<stop  offset="0.8065" style="stop-color:#EEEEEE"/>
			</radialGradient>
			<path class="st13" d="M215,116.5c14.4,40.3-6.6,84.8-46.9,99.2c-40.3,14.4-84.7-6.6-99.2-46.9c-14.4-40.3,6.6-84.8,46.9-99.2
				C156.1,55.2,200.5,76.2,215,116.5z"/>
			<radialGradient id="SVGID_15_" cx="152.8605" cy="129.3669" r="178.5777" gradientUnits="userSpaceOnUse">
				<stop  offset="0.1935" style="stop-color:#EFEFEF"/>
				<stop  offset="0.3387" style="stop-color:#E9E9E9"/>
				<stop  offset="0.6613" style="stop-color:#E7E7E7"/>
				<stop  offset="0.8065" style="stop-color:#ECECED"/>
			</radialGradient>
			<path class="st14" d="M213.4,114.5c15.5,39.5-3.8,84.1-43.3,99.6c-39.5,15.5-84-3.8-99.6-43.3c-15.5-39.5,3.8-84.1,43.3-99.6
				C153.2,55.7,197.8,75.1,213.4,114.5z"/>
			<radialGradient id="SVGID_16_" cx="153.1239" cy="133.7051" r="174.6938" gradientUnits="userSpaceOnUse">
				<stop  offset="0.1935" style="stop-color:#F0F0F1"/>
				<stop  offset="0.3387" style="stop-color:#EAEAEA"/>
				<stop  offset="0.6613" style="stop-color:#E6E6E6"/>
				<stop  offset="0.8065" style="stop-color:#EBEBEB"/>
			</radialGradient>
			<path class="st15" d="M211.8,112.5c16.7,38.6-1.1,83.4-39.7,100c-38.6,16.7-83.3-1.1-100-39.7c-16.7-38.6,1.1-83.4,39.7-100
				C150.3,56.2,195.1,73.9,211.8,112.5z"/>
			<radialGradient id="SVGID_17_" cx="153.3927" cy="137.9593" r="170.8781" gradientUnits="userSpaceOnUse">
				<stop  offset="0.1935" style="stop-color:#F2F2F2"/>
				<stop  offset="0.3387" style="stop-color:#EAEBEB"/>
				<stop  offset="0.6613" style="stop-color:#E5E5E5"/>
				<stop  offset="0.8065" style="stop-color:#EAEAEA"/>
			</radialGradient>
			<path class="st16" d="M210.2,110.5c17.8,37.7,1.6,82.7-36.1,100.4c-37.7,17.8-82.6,1.6-100.4-36.1
				c-17.8-37.7-1.6-82.7,36.1-100.4C147.4,56.7,192.4,72.8,210.2,110.5z"/>
			<radialGradient id="SVGID_18_" cx="153.6683" cy="142.143" r="167.1448" gradientUnits="userSpaceOnUse">
				<stop  offset="0.1935" style="stop-color:#F3F3F3"/>
				<stop  offset="0.3387" style="stop-color:#EBEBEC"/>
				<stop  offset="0.6613" style="stop-color:#E4E4E4"/>
				<stop  offset="0.8065" style="stop-color:#E8E8E8"/>
			</radialGradient>
			<path class="st17" d="M208.6,108.5c18.9,36.8,4.3,82-32.5,100.8c-36.8,18.9-82,4.3-100.8-32.5C56.4,140,70.9,94.9,107.7,76
				C144.6,57.1,189.7,71.7,208.6,108.5z"/>
			<radialGradient id="SVGID_19_" cx="153.9523" cy="146.2698" r="163.5082" gradientUnits="userSpaceOnUse">
				<stop  offset="0.1935" style="stop-color:#F5F4F5"/>
				<stop  offset="0.3387" style="stop-color:#ECECED"/>
				<stop  offset="0.6613" style="stop-color:#E3E3E3"/>
				<stop  offset="0.8065" style="stop-color:#E7E7E7"/>
			</radialGradient>
			<path class="st18" d="M207,106.5c20,35.9,7.1,81.3-28.9,101.2c-35.9,20-81.3,7.1-101.2-28.9c-20-35.9-7.1-81.3,28.9-101.2
				C141.7,57.6,187,70.6,207,106.5z"/>
			<radialGradient id="SVGID_20_" cx="154.2462" cy="150.354" r="159.9821" gradientUnits="userSpaceOnUse">
				<stop  offset="0.1935" style="stop-color:#F6F6F6"/>
				<stop  offset="0.3387" style="stop-color:#EDEDED"/>
				<stop  offset="0.6613" style="stop-color:#E2E3E2"/>
				<stop  offset="0.8065" style="stop-color:#E6E6E6"/>
			</radialGradient>
			<path class="st19" d="M205.4,104.5c21.1,35,9.8,80.6-25.3,101.7c-35,21.1-80.6,9.8-101.6-25.3c-21.1-35-9.8-80.6,25.3-101.7
				C138.8,58.1,184.3,69.4,205.4,104.5z"/>
			<radialGradient id="SVGID_21_" cx="154.5514" cy="154.4101" r="156.5812" gradientUnits="userSpaceOnUse">
				<stop  offset="0.1935" style="stop-color:#F7F7F8"/>
				<stop  offset="0.3387" style="stop-color:#EEEEEE"/>
				<stop  offset="0.6613" style="stop-color:#E2E2E1"/>
				<stop  offset="0.8065" style="stop-color:#E4E4E4"/>
			</radialGradient>
			<path class="st20" d="M203.8,102.5c22.2,34.2,12.5,79.9-21.7,102.1C148,226.7,102.3,217,80.1,182.9
				C57.9,148.7,67.6,103,101.7,80.8C135.9,58.6,181.6,68.3,203.8,102.5z"/>
			<radialGradient id="SVGID_22_" cx="154.8694" cy="158.4529" r="153.3207" gradientUnits="userSpaceOnUse">
				<stop  offset="0.1935" style="stop-color:#F9F9F9"/>
				<stop  offset="0.3387" style="stop-color:#EFEFEF"/>
				<stop  offset="0.6613" style="stop-color:#E1E1E1"/>
				<stop  offset="0.8065" style="stop-color:#E3E3E3"/>
			</radialGradient>
			<path class="st21" d="M202.2,100.5c23.3,33.3,15.2,79.2-18,102.5c-33.3,23.3-79.2,15.2-102.5-18c-23.3-33.3-15.2-79.2,18-102.5
				C133,59.1,178.9,67.2,202.2,100.5z"/>
			<radialGradient id="SVGID_23_" cx="155.2017" cy="162.4974" r="150.2172" gradientUnits="userSpaceOnUse">
				<stop  offset="0.1935" style="stop-color:#FAFAFA"/>
				<stop  offset="0.3387" style="stop-color:#F0F0F0"/>
				<stop  offset="0.6613" style="stop-color:#E0E0E0"/>
				<stop  offset="0.8065" style="stop-color:#E2E2E1"/>
			</radialGradient>
			<path class="st22" d="M200.6,98.4c24.4,32.4,18,78.5-14.4,102.9c-32.4,24.4-78.5,18-102.9-14.4c-24.4-32.4-18-78.5,14.4-102.9
				C130.1,59.6,176.2,66.1,200.6,98.4z"/>
			<radialGradient id="SVGID_24_" cx="155.5496" cy="166.5586" r="147.2894" gradientUnits="userSpaceOnUse">
				<stop  offset="0.1935" style="stop-color:#FBFBFB"/>
				<stop  offset="0.3387" style="stop-color:#F1F1F1"/>
				<stop  offset="0.6613" style="stop-color:#DFDFDF"/>
				<stop  offset="0.8065" style="stop-color:#E0E0E0"/>
			</radialGradient>
			<path class="st23" d="M199,96.4c25.5,31.5,20.7,77.8-10.8,103.3c-31.5,25.5-77.8,20.7-103.3-10.8
				c-25.5-31.5-20.7-77.8,10.8-103.3C127.2,60.1,173.4,64.9,199,96.4z"/>
			<radialGradient id="SVGID_25_" cx="155.9145" cy="170.6515" r="144.5587" gradientUnits="userSpaceOnUse">
				<stop  offset="0.1935" style="stop-color:#FDFDFD"/>
				<stop  offset="0.3387" style="stop-color:#F2F2F2"/>
				<stop  offset="0.6613" style="stop-color:#DEDEDE"/>
				<stop  offset="0.8065" style="stop-color:#DFDFDF"/>
			</radialGradient>
			<path class="st24" d="M197.4,94.4c26.6,30.6,23.4,77.1-7.2,103.7c-30.6,26.7-77.1,23.4-103.7-7.2C59.8,160.3,63,113.9,93.7,87.2
				C124.3,60.6,170.7,63.8,197.4,94.4z"/>
			<radialGradient id="SVGID_26_" cx="156.2976" cy="174.7911" r="142.0501" gradientUnits="userSpaceOnUse">
				<stop  offset="0.1935" style="stop-color:#FEFEFE"/>
				<stop  offset="0.3387" style="stop-color:#F3F3F3"/>
				<stop  offset="0.6613" style="stop-color:#DDDDDD"/>
				<stop  offset="0.8065" style="stop-color:#DDDEDD"/>
			</radialGradient>
			<path class="st25" d="M195.8,92.4c27.8,29.8,26.1,76.4-3.6,104.1c-29.7,27.8-76.4,26.1-104.1-3.6c-27.8-29.7-26.1-76.4,3.6-104.1
				C121.4,61.1,168,62.7,195.8,92.4z"/>
			<radialGradient id="SVGID_27_" cx="156.7001" cy="178.992" r="139.7931" gradientUnits="userSpaceOnUse">
				<stop  offset="0.1935" style="stop-color:#FFFFFF"/>
				<stop  offset="0.3278" style="stop-color:#F4F4F5"/>
				<stop  offset="0.6613" style="stop-color:#DCDCDC"/>
			</radialGradient>
			<path class="st26" d="M194.2,90.4c28.9,28.9,28.9,75.7,0,104.5c-28.9,28.9-75.7,28.9-104.5,0c-28.9-28.9-28.9-75.7,0-104.5
				C118.5,61.5,165.3,61.5,194.2,90.4z"/>
		</g>
	</g>
</g>
<g>
	
		<image style="overflow:visible;opacity:0.7;" width="545" height="473" xlink:href="5255BE2E.png"  transform="matrix(0.24 0 0 0.24 75.36 91.68)">
	</image>
	<g>
		<g>
			<path class="st27" d="M191.2,105.8c0,0.5,0,1,0,1.5c-0.4,0.2-0.2,0.6-0.2,0.9c-1.3,5.8-2.5,11.5-3.7,17.3
				c-1.4,6.4-2.7,12.8-4.1,19.3c-1.5,7.1-3,14.2-4.5,21.3c-1.3,6.2-2.6,12.3-3.9,18.5c-0.5,2.5-1.4,4.8-4.2,5.7c-0.6,0-1.3,0-1.9,0
				c-0.7-0.3-1.4-0.6-2.1-0.9c-1.6-0.8-3-2-4.4-3.1c-6.8-5-13.6-10-20.4-15c-0.2-0.1-0.3-0.4-0.6-0.2c-1.6-1.5-3.5-2.6-5.2-3.9
				c-3.2-2.4-6.4-4.7-9.6-7c0.1-0.9,1-1.2,1.5-1.7c4.6-4.2,9.3-8.4,14-12.7c2.7-2.4,5.3-4.8,8-7.2c3.7-3.3,7.4-6.6,11-9.9
				c2.3-2.1,4.6-4.1,6.9-6.2c1.3-1.2,2.7-2.4,4-3.7c0.3-0.3,0.7-0.7,0.4-1.2c-0.2-0.4-0.7-0.4-1.1-0.4c-1.1,0-2.1,0.6-3,1.1
				c-2.9,1.8-5.8,3.7-8.7,5.5c-9.7,6.1-19.5,12.3-29.2,18.4c-5.8,3.7-11.7,7.4-17.5,11c-0.1,0-0.1-0.1-0.2-0.1
				c-8-2.5-15.9-5-23.9-7.5c-1.5-0.5-2.9-1.2-3.8-2.5c0-0.6,0-1.1,0-1.7c1.2-1.7,2.9-2.8,4.8-3.5c3.1-1.2,6.1-2.4,9.2-3.6
				c12.8-4.9,25.6-9.9,38.5-14.8c12.6-4.9,25.3-9.8,37.9-14.6c3.4-1.3,6.8-2.7,10.2-4c0.7,0,1.4,0,2.1,0c1.4,0.4,2.5,1.2,3.2,2.6
				C190.9,104.3,190.9,105.1,191.2,105.8z"/>
			<path class="st28" d="M124.5,184.9c-1.5-0.1-2.4-0.3-2.9-2.4c-0.9-3.3-2-6.5-3-9.7c-2-6.5-3.9-13-5.9-19.4
				c5.8-3.7,11.7-7.4,17.5-11c9.7-6.1,19.5-12.3,29.2-18.4c2.9-1.8,5.8-3.7,8.7-5.5c0.9-0.6,1.8-1.1,3-1.1c0.4,0,0.9,0,1.1,0.4
				c0.3,0.5-0.1,0.9-0.4,1.2c-1.3,1.2-2.7,2.5-4,3.7c-2.3,2.1-4.6,4.1-6.9,6.2c-3.7,3.3-7.4,6.6-11,9.9c-2.7,2.4-5.3,4.8-8,7.2
				c-4.7,4.2-9.4,8.4-14,12.7c-0.6,0.5-1.4,0.8-1.5,1.7c-0.1,0.1-0.2,0.1-0.2,0.2c-0.4,1.4-0.2,2.9-0.4,4.4c-0.3,2.5-0.2,5-0.5,7.5
				c-0.1,1-0.1,2-0.2,3C124.9,178.4,124.9,181.7,124.5,184.9z"/>
			<path class="st29" d="M124.5,184.9c0.4-3.2,0.4-6.4,0.7-9.7c0.1-1,0.1-2,0.2-3c0.2-2.5,0.2-5,0.5-7.5c0.2-1.5,0-3,0.4-4.4
				c0-0.1,0.1-0.1,0.2-0.2c3.2,2.3,6.4,4.7,9.6,7c1.7,1.3,3.6,2.5,5.2,3.9c-0.9,1.2-2.1,2.1-3.2,3.1c-1.9,1.8-3.6,3.7-5.6,5.5
				c-1.5,1.4-2.8,3-4.5,4.2C126.9,184.6,125.7,184.9,124.5,184.9z"/>
		</g>
	</g>
</g>
</svg>
