<?xml version="1.0" encoding="utf-8"?>
<!-- Generator: Adobe Illustrator 22.0.0, SVG Export Plug-In . SVG Version: 6.00 Build 0)  -->
<svg version="1.1" id="Layer_1" xmlns="http://www.w3.org/2000/svg" xmlns:xlink="http://www.w3.org/1999/xlink" x="0px" y="0px"
	 viewBox="0 0 283.5 283.5" style="enable-background:new 0 0 283.5 283.5;" xml:space="preserve">
<style type="text/css">
	.st0{fill:url(#SVGID_1_);}
	.st1{fill:url(#SVGID_2_);}
	.st2{fill:url(#SVGID_3_);}
	.st3{fill:url(#SVGID_4_);}
	.st4{fill:url(#SVGID_5_);}
	.st5{fill:url(#SVGID_6_);}
	.st6{fill:url(#SVGID_7_);}
	.st7{fill:url(#SVGID_8_);}
	.st8{fill:url(#SVGID_9_);}
	.st9{fill:url(#SVGID_10_);}
	.st10{fill:url(#SVGID_11_);}
	.st11{fill:url(#SVGID_12_);}
	.st12{fill:url(#SVGID_13_);}
	.st13{fill:url(#SVGID_14_);}
	.st14{fill:url(#SVGID_15_);}
	.st15{fill:url(#SVGID_16_);}
	.st16{fill:url(#SVGID_17_);}
	.st17{fill:url(#SVGID_18_);}
	.st18{fill:url(#SVGID_19_);}
	.st19{fill:url(#SVGID_20_);}
	.st20{fill:url(#SVGID_21_);}
	.st21{fill:url(#SVGID_22_);}
	.st22{fill:url(#SVGID_23_);}
	.st23{fill:url(#SVGID_24_);}
	.st24{fill:url(#SVGID_25_);}
	.st25{fill:url(#SVGID_26_);}
	.st26{fill:url(#SVGID_27_);}
	.st27{fill:#FFFFFF;}
</style>
<g>
	<g>
		<g>
			<radialGradient id="SVGID_1_" cx="152.987" cy="44.257" r="230.4455" gradientUnits="userSpaceOnUse">
				<stop  offset="0.3387" style="stop-color:#DCDCDC"/>
				<stop  offset="0.6722" style="stop-color:#F4F4F5"/>
				<stop  offset="0.8065" style="stop-color:#FFFFFF"/>
			</radialGradient>
			<path class="st0" d="M52.1,133.3c0-51.8,42-93.8,93.8-93.8c51.8,0,93.8,42,93.8,93.8c0,51.8-42,93.8-93.8,93.8
				C94.1,227.1,52.1,185.1,52.1,133.3z"/>
			<radialGradient id="SVGID_2_" cx="153.3106" cy="50.8619" r="227.5073" gradientUnits="userSpaceOnUse">
				<stop  offset="0.1935" style="stop-color:#DDDEDD"/>
				<stop  offset="0.3387" style="stop-color:#DDDDDD"/>
				<stop  offset="0.6613" style="stop-color:#F3F3F3"/>
				<stop  offset="0.8065" style="stop-color:#FEFEFE"/>
			</radialGradient>
			<path class="st1" d="M238.2,131.3c1.1,50.9-39.3,93.1-90.2,94.2c-50.9,1.1-93.1-39.3-94.2-90.2C52.6,84.3,93,42.1,143.9,41
				C194.8,39.9,237,80.3,238.2,131.3z"/>
			<radialGradient id="SVGID_3_" cx="153.6229" cy="57.2535" r="224.3611" gradientUnits="userSpaceOnUse">
				<stop  offset="0.1935" style="stop-color:#DFDFDF"/>
				<stop  offset="0.3387" style="stop-color:#DEDEDE"/>
				<stop  offset="0.6613" style="stop-color:#F2F2F2"/>
				<stop  offset="0.8065" style="stop-color:#FDFDFD"/>
			</radialGradient>
			<path class="st2" d="M236.6,129.3c2.2,50.1-36.6,92.4-86.6,94.7c-50.1,2.2-92.4-36.6-94.7-86.6c-2.2-50.1,36.6-92.4,86.6-94.7
				C192,40.4,234.3,79.2,236.6,129.3z"/>
			<radialGradient id="SVGID_4_" cx="153.9249" cy="63.4378" r="221.0311" gradientUnits="userSpaceOnUse">
				<stop  offset="0.1935" style="stop-color:#E0E0E0"/>
				<stop  offset="0.3387" style="stop-color:#DFDFDF"/>
				<stop  offset="0.6613" style="stop-color:#F1F1F1"/>
				<stop  offset="0.8065" style="stop-color:#FBFBFB"/>
			</radialGradient>
			<path class="st3" d="M235,127.2c3.3,49.2-33.8,91.7-83,95.1c-49.2,3.3-91.7-33.8-95.1-83c-3.3-49.2,33.8-91.7,83-95.1
				C189.1,40.9,231.6,78.1,235,127.2z"/>
			<radialGradient id="SVGID_5_" cx="154.2175" cy="69.4213" r="217.5411" gradientUnits="userSpaceOnUse">
				<stop  offset="0.1935" style="stop-color:#E2E2E1"/>
				<stop  offset="0.3387" style="stop-color:#E0E0E0"/>
				<stop  offset="0.6613" style="stop-color:#F0F0F0"/>
				<stop  offset="0.8065" style="stop-color:#FAFAFA"/>
			</radialGradient>
			<path class="st4" d="M233.4,125.2c4.4,48.3-31.1,91-79.4,95.5c-48.3,4.4-91-31.1-95.5-79.4C54,93,89.6,50.3,137.9,45.8
				C186.2,41.4,228.9,76.9,233.4,125.2z"/>
			<radialGradient id="SVGID_6_" cx="154.5015" cy="75.2107" r="213.9143" gradientUnits="userSpaceOnUse">
				<stop  offset="0.1935" style="stop-color:#E3E3E3"/>
				<stop  offset="0.3387" style="stop-color:#E1E1E1"/>
				<stop  offset="0.6613" style="stop-color:#EFEFEF"/>
				<stop  offset="0.8065" style="stop-color:#F9F9F9"/>
			</radialGradient>
			<path class="st5" d="M231.8,123.2c5.6,47.4-28.4,90.3-75.8,95.9c-47.4,5.6-90.3-28.4-95.9-75.8C54.5,95.9,88.5,53,135.9,47.4
				C183.3,41.9,226.2,75.8,231.8,123.2z"/>
			<radialGradient id="SVGID_7_" cx="154.7781" cy="80.8134" r="210.173" gradientUnits="userSpaceOnUse">
				<stop  offset="0.1935" style="stop-color:#E4E4E4"/>
				<stop  offset="0.3387" style="stop-color:#E2E2E1"/>
				<stop  offset="0.6613" style="stop-color:#EEEEEE"/>
				<stop  offset="0.8065" style="stop-color:#F7F7F8"/>
			</radialGradient>
			<path class="st6" d="M230.2,121.2c6.7,46.5-25.7,89.6-72.2,96.3c-46.5,6.7-89.6-25.7-96.3-72.2C55,98.8,87.3,55.7,133.9,49
				C180.4,42.4,223.5,74.7,230.2,121.2z"/>
			<radialGradient id="SVGID_8_" cx="155.0483" cy="86.2372" r="206.3391" gradientUnits="userSpaceOnUse">
				<stop  offset="0.1935" style="stop-color:#E6E6E6"/>
				<stop  offset="0.3387" style="stop-color:#E2E3E2"/>
				<stop  offset="0.6613" style="stop-color:#EDEDED"/>
				<stop  offset="0.8065" style="stop-color:#F6F6F6"/>
			</radialGradient>
			<path class="st7" d="M228.6,119.2c7.8,45.6-22.9,88.9-68.6,96.7c-45.6,7.8-88.9-22.9-96.7-68.6c-7.8-45.6,22.9-88.9,68.6-96.7
				C177.5,42.9,220.8,73.6,228.6,119.2z"/>
			<radialGradient id="SVGID_9_" cx="155.3132" cy="91.4903" r="202.4337" gradientUnits="userSpaceOnUse">
				<stop  offset="0.1935" style="stop-color:#E7E7E7"/>
				<stop  offset="0.3387" style="stop-color:#E3E3E3"/>
				<stop  offset="0.6613" style="stop-color:#ECECED"/>
				<stop  offset="0.8065" style="stop-color:#F5F4F5"/>
			</radialGradient>
			<path class="st8" d="M227,117.2c8.9,44.8-20.2,88.2-65,97.1c-44.8,8.9-88.2-20.2-97.1-65c-8.9-44.8,20.2-88.2,65-97.1
				C174.6,43.3,218.1,72.4,227,117.2z"/>
			<radialGradient id="SVGID_10_" cx="155.574" cy="96.5816" r="198.477" gradientUnits="userSpaceOnUse">
				<stop  offset="0.1935" style="stop-color:#E8E8E8"/>
				<stop  offset="0.3387" style="stop-color:#E4E4E4"/>
				<stop  offset="0.6613" style="stop-color:#EBEBEC"/>
				<stop  offset="0.8065" style="stop-color:#F3F3F3"/>
			</radialGradient>
			<path class="st9" d="M225.4,115.2c10,43.9-17.5,87.5-61.4,97.5c-43.9,10-87.5-17.5-97.5-61.4c-10-43.9,17.5-87.5,61.4-97.5
				C171.7,43.8,215.4,71.3,225.4,115.2z"/>
			<radialGradient id="SVGID_11_" cx="155.8319" cy="101.5205" r="194.4885" gradientUnits="userSpaceOnUse">
				<stop  offset="0.1935" style="stop-color:#EAEAEA"/>
				<stop  offset="0.3387" style="stop-color:#E5E5E5"/>
				<stop  offset="0.6613" style="stop-color:#EAEBEB"/>
				<stop  offset="0.8065" style="stop-color:#F2F2F2"/>
			</radialGradient>
			<path class="st10" d="M223.8,113.2c11.1,43-14.8,86.8-57.7,98c-43,11.1-86.8-14.8-97.9-57.7c-11.1-43,14.8-86.8,57.7-98
				C168.8,44.3,212.7,70.2,223.8,113.2z"/>
			<radialGradient id="SVGID_12_" cx="156.0881" cy="106.317" r="190.4869" gradientUnits="userSpaceOnUse">
				<stop  offset="0.1935" style="stop-color:#EBEBEB"/>
				<stop  offset="0.3387" style="stop-color:#E6E6E6"/>
				<stop  offset="0.6613" style="stop-color:#EAEAEA"/>
				<stop  offset="0.8065" style="stop-color:#F0F0F1"/>
			</radialGradient>
			<path class="st11" d="M222.2,111.2c12.2,42.1-12,86.2-54.1,98.4c-42.1,12.2-86.1-12-98.4-54.1c-12.2-42.1,12-86.1,54.1-98.4
				C165.9,44.8,210,69,222.2,111.2z"/>
			<radialGradient id="SVGID_13_" cx="156.3441" cy="110.9817" r="186.4901" gradientUnits="userSpaceOnUse">
				<stop  offset="0.1935" style="stop-color:#ECECED"/>
				<stop  offset="0.3387" style="stop-color:#E7E7E7"/>
				<stop  offset="0.6613" style="stop-color:#E9E9E9"/>
				<stop  offset="0.8065" style="stop-color:#EFEFEF"/>
			</radialGradient>
			<path class="st12" d="M220.6,109.1c13.3,41.2-9.3,85.5-50.5,98.8c-41.2,13.3-85.4-9.3-98.8-50.5c-13.3-41.2,9.3-85.4,50.5-98.8
				C163,45.3,207.2,67.9,220.6,109.1z"/>
			<radialGradient id="SVGID_14_" cx="156.6011" cy="115.5256" r="182.5149" gradientUnits="userSpaceOnUse">
				<stop  offset="0.1935" style="stop-color:#EEEEEE"/>
				<stop  offset="0.3387" style="stop-color:#E8E8E8"/>
				<stop  offset="0.6613" style="stop-color:#E8E8E8"/>
				<stop  offset="0.8065" style="stop-color:#EEEEEE"/>
			</radialGradient>
			<path class="st13" d="M219,107.1c14.4,40.3-6.6,84.8-46.9,99.2c-40.3,14.4-84.7-6.6-99.2-46.9c-14.4-40.3,6.6-84.8,46.9-99.2
				C160.1,45.8,204.5,66.8,219,107.1z"/>
			<radialGradient id="SVGID_15_" cx="156.8605" cy="119.9605" r="178.5777" gradientUnits="userSpaceOnUse">
				<stop  offset="0.1935" style="stop-color:#EFEFEF"/>
				<stop  offset="0.3387" style="stop-color:#E9E9E9"/>
				<stop  offset="0.6613" style="stop-color:#E7E7E7"/>
				<stop  offset="0.8065" style="stop-color:#ECECED"/>
			</radialGradient>
			<path class="st14" d="M217.4,105.1c15.5,39.5-3.8,84.1-43.3,99.6c-39.5,15.5-84-3.8-99.6-43.3c-15.5-39.5,3.8-84.1,43.3-99.6
				C157.2,46.3,201.8,65.7,217.4,105.1z"/>
			<radialGradient id="SVGID_16_" cx="157.1239" cy="124.2987" r="174.6938" gradientUnits="userSpaceOnUse">
				<stop  offset="0.1935" style="stop-color:#F0F0F1"/>
				<stop  offset="0.3387" style="stop-color:#EAEAEA"/>
				<stop  offset="0.6613" style="stop-color:#E6E6E6"/>
				<stop  offset="0.8065" style="stop-color:#EBEBEB"/>
			</radialGradient>
			<path class="st15" d="M215.8,103.1c16.7,38.6-1.1,83.4-39.7,100c-38.6,16.7-83.3-1.1-100-39.7c-16.7-38.6,1.1-83.4,39.7-100
				C154.3,46.8,199.1,64.5,215.8,103.1z"/>
			<radialGradient id="SVGID_17_" cx="157.3927" cy="128.5529" r="170.8781" gradientUnits="userSpaceOnUse">
				<stop  offset="0.1935" style="stop-color:#F2F2F2"/>
				<stop  offset="0.3387" style="stop-color:#EAEBEB"/>
				<stop  offset="0.6613" style="stop-color:#E5E5E5"/>
				<stop  offset="0.8065" style="stop-color:#EAEAEA"/>
			</radialGradient>
			<path class="st16" d="M214.2,101.1c17.8,37.7,1.6,82.7-36.1,100.4c-37.7,17.8-82.6,1.6-100.4-36.1C59.9,127.7,76.1,82.8,113.8,65
				C151.4,47.3,196.4,63.4,214.2,101.1z"/>
			<radialGradient id="SVGID_18_" cx="157.6683" cy="132.7366" r="167.1448" gradientUnits="userSpaceOnUse">
				<stop  offset="0.1935" style="stop-color:#F3F3F3"/>
				<stop  offset="0.3387" style="stop-color:#EBEBEC"/>
				<stop  offset="0.6613" style="stop-color:#E4E4E4"/>
				<stop  offset="0.8065" style="stop-color:#E8E8E8"/>
			</radialGradient>
			<path class="st17" d="M212.6,99.1c18.9,36.8,4.3,82-32.5,100.8c-36.8,18.9-82,4.3-100.8-32.5c-18.9-36.8-4.3-82,32.5-100.8
				C148.6,47.7,193.7,62.3,212.6,99.1z"/>
			<radialGradient id="SVGID_19_" cx="157.9523" cy="136.8634" r="163.5082" gradientUnits="userSpaceOnUse">
				<stop  offset="0.1935" style="stop-color:#F5F4F5"/>
				<stop  offset="0.3387" style="stop-color:#ECECED"/>
				<stop  offset="0.6613" style="stop-color:#E3E3E3"/>
				<stop  offset="0.8065" style="stop-color:#E7E7E7"/>
			</radialGradient>
			<path class="st18" d="M211,97.1c20,35.9,7.1,81.3-28.9,101.2c-35.9,20-81.3,7.1-101.2-28.9c-20-35.9-7.1-81.3,28.9-101.2
				C145.7,48.2,191,61.2,211,97.1z"/>
			<radialGradient id="SVGID_20_" cx="158.2462" cy="140.9476" r="159.9821" gradientUnits="userSpaceOnUse">
				<stop  offset="0.1935" style="stop-color:#F6F6F6"/>
				<stop  offset="0.3387" style="stop-color:#EDEDED"/>
				<stop  offset="0.6613" style="stop-color:#E2E3E2"/>
				<stop  offset="0.8065" style="stop-color:#E6E6E6"/>
			</radialGradient>
			<path class="st19" d="M209.4,95.1c21.1,35,9.8,80.6-25.3,101.7c-35,21.1-80.6,9.8-101.6-25.3c-21.1-35-9.8-80.6,25.3-101.7
				C142.8,48.7,188.3,60,209.4,95.1z"/>
			<radialGradient id="SVGID_21_" cx="158.5514" cy="145.0037" r="156.5812" gradientUnits="userSpaceOnUse">
				<stop  offset="0.1935" style="stop-color:#F7F7F8"/>
				<stop  offset="0.3387" style="stop-color:#EEEEEE"/>
				<stop  offset="0.6613" style="stop-color:#E2E2E1"/>
				<stop  offset="0.8065" style="stop-color:#E4E4E4"/>
			</radialGradient>
			<path class="st20" d="M207.8,93.1c22.2,34.2,12.5,79.9-21.7,102.1c-34.2,22.2-79.9,12.5-102.1-21.7
				c-22.2-34.2-12.5-79.9,21.7-102.1C139.9,49.2,185.6,58.9,207.8,93.1z"/>
			<radialGradient id="SVGID_22_" cx="158.8694" cy="149.0465" r="153.3207" gradientUnits="userSpaceOnUse">
				<stop  offset="0.1935" style="stop-color:#F9F9F9"/>
				<stop  offset="0.3387" style="stop-color:#EFEFEF"/>
				<stop  offset="0.6613" style="stop-color:#E1E1E1"/>
				<stop  offset="0.8065" style="stop-color:#E3E3E3"/>
			</radialGradient>
			<path class="st21" d="M206.2,91.1c23.3,33.3,15.2,79.2-18,102.5c-33.3,23.3-79.2,15.2-102.5-18c-23.3-33.3-15.2-79.2,18-102.5
				C137,49.7,182.9,57.8,206.2,91.1z"/>
			<radialGradient id="SVGID_23_" cx="159.2017" cy="153.091" r="150.2172" gradientUnits="userSpaceOnUse">
				<stop  offset="0.1935" style="stop-color:#FAFAFA"/>
				<stop  offset="0.3387" style="stop-color:#F0F0F0"/>
				<stop  offset="0.6613" style="stop-color:#E0E0E0"/>
				<stop  offset="0.8065" style="stop-color:#E2E2E1"/>
			</radialGradient>
			<path class="st22" d="M204.6,89c24.4,32.4,18,78.5-14.4,102.9c-32.4,24.4-78.5,18-102.9-14.4c-24.4-32.4-18-78.5,14.4-102.9
				C134.1,50.2,180.2,56.6,204.6,89z"/>
			<radialGradient id="SVGID_24_" cx="159.5496" cy="157.1522" r="147.2894" gradientUnits="userSpaceOnUse">
				<stop  offset="0.1935" style="stop-color:#FBFBFB"/>
				<stop  offset="0.3387" style="stop-color:#F1F1F1"/>
				<stop  offset="0.6613" style="stop-color:#DFDFDF"/>
				<stop  offset="0.8065" style="stop-color:#E0E0E0"/>
			</radialGradient>
			<path class="st23" d="M203,87c25.5,31.5,20.7,77.8-10.8,103.3c-31.5,25.5-77.8,20.7-103.3-10.8C63.3,148,68.2,101.7,99.7,76.2
				C131.2,50.7,177.4,55.5,203,87z"/>
			<radialGradient id="SVGID_25_" cx="159.9145" cy="161.2451" r="144.5587" gradientUnits="userSpaceOnUse">
				<stop  offset="0.1935" style="stop-color:#FDFDFD"/>
				<stop  offset="0.3387" style="stop-color:#F2F2F2"/>
				<stop  offset="0.6613" style="stop-color:#DEDEDE"/>
				<stop  offset="0.8065" style="stop-color:#DFDFDF"/>
			</radialGradient>
			<path class="st24" d="M201.4,85c26.6,30.6,23.4,77.1-7.2,103.7c-30.6,26.7-77.1,23.4-103.7-7.2C63.8,150.9,67,104.5,97.7,77.8
				C128.3,51.2,174.7,54.4,201.4,85z"/>
			<radialGradient id="SVGID_26_" cx="160.2976" cy="165.3847" r="142.0501" gradientUnits="userSpaceOnUse">
				<stop  offset="0.1935" style="stop-color:#FEFEFE"/>
				<stop  offset="0.3387" style="stop-color:#F3F3F3"/>
				<stop  offset="0.6613" style="stop-color:#DDDDDD"/>
				<stop  offset="0.8065" style="stop-color:#DDDEDD"/>
			</radialGradient>
			<path class="st25" d="M199.8,83c27.8,29.8,26.1,76.4-3.6,104.1c-29.7,27.8-76.4,26.1-104.1-3.6c-27.8-29.7-26.1-76.4,3.6-104.1
				C125.4,51.7,172,53.3,199.8,83z"/>
			<radialGradient id="SVGID_27_" cx="160.7001" cy="169.5856" r="139.7931" gradientUnits="userSpaceOnUse">
				<stop  offset="0.1935" style="stop-color:#FFFFFF"/>
				<stop  offset="0.3278" style="stop-color:#F4F4F5"/>
				<stop  offset="0.6613" style="stop-color:#DCDCDC"/>
			</radialGradient>
			<path class="st26" d="M198.2,81c28.9,28.9,28.9,75.7,0,104.5c-28.9,28.9-75.7,28.9-104.5,0c-28.9-28.9-28.9-75.7,0-104.5
				C122.5,52.1,169.3,52.1,198.2,81z"/>
		</g>
	</g>
</g>
<g id="XMLID_171_">
	
		<image style="overflow:visible;opacity:0.7;" width="504" height="423" xlink:href="53E9567.png"  transform="matrix(0.24 0 0 0.24 89.6 92.049)">
	</image>
	<g>
		<g>
			<path id="XMLID_13_" class="st27" d="M195.5,110.4c-3.5,1.5-7.4,2.6-11.4,3.1c4.1-2.4,7.2-6.2,8.7-10.8
				c-3.8,2.2-8.1,3.9-12.6,4.7c-3.6-3.8-8.8-6.2-14.5-6.2c-10.9,0-19.8,8.7-19.8,19.5c0,1.5,0.2,3,0.5,4.4
				c-16.5-0.8-31.1-8.6-40.9-20.4c-1.7,2.9-2.7,6.2-2.7,9.8c0,6.8,3.5,12.7,8.8,16.2c-3.3-0.1-6.3-1-9-2.4c0,0.1,0,0.2,0,0.2
				c0,2.5,0.5,4.9,1.3,7.1c2.4,6.1,7.9,10.7,14.6,12.1c-1.7,0.4-3.4,0.7-5.2,0.7c-1.3,0-2.5-0.1-3.7-0.4c2.5,7.7,9.9,13.4,18.5,13.5
				c-6.8,5.2-15.3,8.4-24.6,8.4c-1.6,0-3.2-0.1-4.7-0.3c8.8,5.5,19.2,8.8,30.4,8.8c31,0,50-21.5,55-43.7c0.9-3.9,1.4-7.9,1.4-11.8
				c0-0.8,0-1.7-0.1-2.5C189.5,117.8,192.9,114.3,195.5,110.4z"/>
		</g>
	</g>
</g>
</svg>
