<?xml version="1.0" encoding="utf-8"?>
<!-- Generator: Adobe Illustrator 22.0.0, SVG Export Plug-In . SVG Version: 6.00 Build 0)  -->
<svg version="1.1" id="Layer_1" xmlns="http://www.w3.org/2000/svg" xmlns:xlink="http://www.w3.org/1999/xlink" x="0px" y="0px"
	 viewBox="0 0 283.5 283.5" style="enable-background:new 0 0 283.5 283.5;" xml:space="preserve">
<style type="text/css">
	.st0{fill:url(#SVGID_1_);}
	.st1{fill:url(#SVGID_2_);}
	.st2{fill:url(#SVGID_3_);}
	.st3{fill:url(#SVGID_4_);}
	.st4{fill:url(#SVGID_5_);}
	.st5{fill:url(#SVGID_6_);}
	.st6{fill:url(#SVGID_7_);}
	.st7{fill:url(#SVGID_8_);}
	.st8{fill:url(#SVGID_9_);}
	.st9{fill:url(#SVGID_10_);}
	.st10{fill:url(#SVGID_11_);}
	.st11{fill:url(#SVGID_12_);}
	.st12{fill:url(#SVGID_13_);}
	.st13{fill:url(#SVGID_14_);}
	.st14{fill:url(#SVGID_15_);}
	.st15{fill:url(#SVGID_16_);}
	.st16{fill:url(#SVGID_17_);}
	.st17{fill:url(#SVGID_18_);}
	.st18{fill:url(#SVGID_19_);}
	.st19{fill:url(#SVGID_20_);}
	.st20{fill:url(#SVGID_21_);}
	.st21{fill:url(#SVGID_22_);}
	.st22{fill:url(#SVGID_23_);}
	.st23{fill:url(#SVGID_24_);}
	.st24{fill:url(#SVGID_25_);}
	.st25{fill:url(#SVGID_26_);}
	.st26{fill:url(#SVGID_27_);}
	.st27{fill:#FFFFFF;}
</style>
<g>
	<g>
		<g>
			<radialGradient id="SVGID_1_" cx="148.4516" cy="53.6634" r="230.4455" gradientUnits="userSpaceOnUse">
				<stop  offset="0.3387" style="stop-color:#DCDCDC"/>
				<stop  offset="0.6722" style="stop-color:#F4F4F5"/>
				<stop  offset="0.8065" style="stop-color:#FFFFFF"/>
			</radialGradient>
			<path class="st0" d="M47.5,142.7c0-51.8,42-93.8,93.8-93.8c51.8,0,93.8,42,93.8,93.8c0,51.8-42,93.8-93.8,93.8
				C89.6,236.5,47.5,194.5,47.5,142.7z"/>
			<radialGradient id="SVGID_2_" cx="148.7751" cy="60.2683" r="227.5073" gradientUnits="userSpaceOnUse">
				<stop  offset="0.1935" style="stop-color:#DDDEDD"/>
				<stop  offset="0.3387" style="stop-color:#DDDDDD"/>
				<stop  offset="0.6613" style="stop-color:#F3F3F3"/>
				<stop  offset="0.8065" style="stop-color:#FEFEFE"/>
			</radialGradient>
			<path class="st1" d="M233.6,140.7c1.1,50.9-39.3,93.1-90.2,94.2c-50.9,1.1-93.1-39.3-94.2-90.2C48,93.7,88.4,51.6,139.4,50.4
				C190.3,49.3,232.5,89.7,233.6,140.7z"/>
			<radialGradient id="SVGID_3_" cx="149.0875" cy="66.6599" r="224.3611" gradientUnits="userSpaceOnUse">
				<stop  offset="0.1935" style="stop-color:#DFDFDF"/>
				<stop  offset="0.3387" style="stop-color:#DEDEDE"/>
				<stop  offset="0.6613" style="stop-color:#F2F2F2"/>
				<stop  offset="0.8065" style="stop-color:#FDFDFD"/>
			</radialGradient>
			<path class="st2" d="M232,138.7c2.2,50.1-36.6,92.4-86.6,94.7c-50.1,2.2-92.4-36.6-94.7-86.6C48.5,96.6,87.3,54.3,137.4,52
				C187.4,49.8,229.8,88.6,232,138.7z"/>
			<radialGradient id="SVGID_4_" cx="149.3895" cy="72.8442" r="221.0311" gradientUnits="userSpaceOnUse">
				<stop  offset="0.1935" style="stop-color:#E0E0E0"/>
				<stop  offset="0.3387" style="stop-color:#DFDFDF"/>
				<stop  offset="0.6613" style="stop-color:#F1F1F1"/>
				<stop  offset="0.8065" style="stop-color:#FBFBFB"/>
			</radialGradient>
			<path class="st3" d="M230.4,136.6c3.3,49.2-33.8,91.7-83,95.1c-49.2,3.3-91.7-33.8-95.1-83C49,99.5,86.2,57,135.3,53.6
				C184.5,50.3,227.1,87.5,230.4,136.6z"/>
			<radialGradient id="SVGID_5_" cx="149.682" cy="78.8277" r="217.5411" gradientUnits="userSpaceOnUse">
				<stop  offset="0.1935" style="stop-color:#E2E2E1"/>
				<stop  offset="0.3387" style="stop-color:#E0E0E0"/>
				<stop  offset="0.6613" style="stop-color:#F0F0F0"/>
				<stop  offset="0.8065" style="stop-color:#FAFAFA"/>
			</radialGradient>
			<path class="st4" d="M228.8,134.6c4.4,48.3-31.1,91-79.4,95.5c-48.3,4.4-91-31.1-95.5-79.4c-4.4-48.3,31.1-91,79.4-95.5
				C181.6,50.8,224.4,86.3,228.8,134.6z"/>
			<radialGradient id="SVGID_6_" cx="149.9661" cy="84.6171" r="213.9143" gradientUnits="userSpaceOnUse">
				<stop  offset="0.1935" style="stop-color:#E3E3E3"/>
				<stop  offset="0.3387" style="stop-color:#E1E1E1"/>
				<stop  offset="0.6613" style="stop-color:#EFEFEF"/>
				<stop  offset="0.8065" style="stop-color:#F9F9F9"/>
			</radialGradient>
			<path class="st5" d="M227.2,132.6c5.6,47.4-28.4,90.3-75.8,95.9c-47.4,5.6-90.3-28.4-95.9-75.8c-5.6-47.4,28.4-90.3,75.8-95.9
				C178.7,51.3,221.7,85.2,227.2,132.6z"/>
			<radialGradient id="SVGID_7_" cx="150.2427" cy="90.2198" r="210.173" gradientUnits="userSpaceOnUse">
				<stop  offset="0.1935" style="stop-color:#E4E4E4"/>
				<stop  offset="0.3387" style="stop-color:#E2E2E1"/>
				<stop  offset="0.6613" style="stop-color:#EEEEEE"/>
				<stop  offset="0.8065" style="stop-color:#F7F7F8"/>
			</radialGradient>
			<path class="st6" d="M225.6,130.6c6.7,46.5-25.7,89.6-72.2,96.3c-46.5,6.7-89.6-25.7-96.3-72.2c-6.7-46.5,25.7-89.6,72.2-96.3
				C175.8,51.8,219,84.1,225.6,130.6z"/>
			<radialGradient id="SVGID_8_" cx="150.5129" cy="95.6436" r="206.3391" gradientUnits="userSpaceOnUse">
				<stop  offset="0.1935" style="stop-color:#E6E6E6"/>
				<stop  offset="0.3387" style="stop-color:#E2E3E2"/>
				<stop  offset="0.6613" style="stop-color:#EDEDED"/>
				<stop  offset="0.8065" style="stop-color:#F6F6F6"/>
			</radialGradient>
			<path class="st7" d="M224,128.6c7.8,45.6-22.9,88.9-68.6,96.7c-45.6,7.8-88.9-22.9-96.7-68.6C51,111.1,81.7,67.8,127.3,60
				C173,52.3,216.3,83,224,128.6z"/>
			<radialGradient id="SVGID_9_" cx="150.7778" cy="100.8967" r="202.4337" gradientUnits="userSpaceOnUse">
				<stop  offset="0.1935" style="stop-color:#E7E7E7"/>
				<stop  offset="0.3387" style="stop-color:#E3E3E3"/>
				<stop  offset="0.6613" style="stop-color:#ECECED"/>
				<stop  offset="0.8065" style="stop-color:#F5F4F5"/>
			</radialGradient>
			<path class="st8" d="M222.4,126.6c8.9,44.8-20.2,88.2-65,97.1c-44.8,8.9-88.2-20.2-97.1-65c-8.9-44.8,20.2-88.2,65-97.1
				C170.1,52.8,213.5,81.8,222.4,126.6z"/>
			<radialGradient id="SVGID_10_" cx="151.0386" cy="105.988" r="198.477" gradientUnits="userSpaceOnUse">
				<stop  offset="0.1935" style="stop-color:#E8E8E8"/>
				<stop  offset="0.3387" style="stop-color:#E4E4E4"/>
				<stop  offset="0.6613" style="stop-color:#EBEBEC"/>
				<stop  offset="0.8065" style="stop-color:#F3F3F3"/>
			</radialGradient>
			<path class="st9" d="M220.8,124.6c10,43.9-17.5,87.5-61.4,97.5c-43.9,10-87.5-17.5-97.5-61.4c-10-43.9,17.5-87.5,61.4-97.5
				C167.2,53.2,210.8,80.7,220.8,124.6z"/>
			<radialGradient id="SVGID_11_" cx="151.2964" cy="110.9269" r="194.4885" gradientUnits="userSpaceOnUse">
				<stop  offset="0.1935" style="stop-color:#EAEAEA"/>
				<stop  offset="0.3387" style="stop-color:#E5E5E5"/>
				<stop  offset="0.6613" style="stop-color:#EAEBEB"/>
				<stop  offset="0.8065" style="stop-color:#F2F2F2"/>
			</radialGradient>
			<path class="st10" d="M219.2,122.6c11.1,43-14.8,86.8-57.7,98c-43,11.1-86.8-14.8-97.9-57.7c-11.1-43,14.8-86.8,57.7-98
				C164.3,53.7,208.1,79.6,219.2,122.6z"/>
			<radialGradient id="SVGID_12_" cx="151.5527" cy="115.7234" r="190.4869" gradientUnits="userSpaceOnUse">
				<stop  offset="0.1935" style="stop-color:#EBEBEB"/>
				<stop  offset="0.3387" style="stop-color:#E6E6E6"/>
				<stop  offset="0.6613" style="stop-color:#EAEAEA"/>
				<stop  offset="0.8065" style="stop-color:#F0F0F1"/>
			</radialGradient>
			<path class="st11" d="M217.6,120.6c12.2,42.1-12,86.2-54.1,98.4c-42.1,12.2-86.1-12-98.4-54.1c-12.2-42.1,12-86.1,54.1-98.4
				C161.4,54.2,205.4,78.5,217.6,120.6z"/>
			<radialGradient id="SVGID_13_" cx="151.8086" cy="120.3881" r="186.4901" gradientUnits="userSpaceOnUse">
				<stop  offset="0.1935" style="stop-color:#ECECED"/>
				<stop  offset="0.3387" style="stop-color:#E7E7E7"/>
				<stop  offset="0.6613" style="stop-color:#E9E9E9"/>
				<stop  offset="0.8065" style="stop-color:#EFEFEF"/>
			</radialGradient>
			<path class="st12" d="M216,118.6c13.3,41.2-9.3,85.5-50.5,98.8c-41.2,13.3-85.4-9.3-98.8-50.5C53.4,125.6,76,81.4,117.3,68
				C158.5,54.7,202.7,77.3,216,118.6z"/>
			<radialGradient id="SVGID_14_" cx="152.0656" cy="124.932" r="182.5149" gradientUnits="userSpaceOnUse">
				<stop  offset="0.1935" style="stop-color:#EEEEEE"/>
				<stop  offset="0.3387" style="stop-color:#E8E8E8"/>
				<stop  offset="0.6613" style="stop-color:#E8E8E8"/>
				<stop  offset="0.8065" style="stop-color:#EEEEEE"/>
			</radialGradient>
			<path class="st13" d="M214.4,116.5c14.4,40.3-6.6,84.8-46.9,99.2c-40.3,14.4-84.7-6.6-99.2-46.9c-14.4-40.3,6.6-84.8,46.9-99.2
				C155.6,55.2,200,76.2,214.4,116.5z"/>
			<radialGradient id="SVGID_15_" cx="152.3251" cy="129.3669" r="178.5777" gradientUnits="userSpaceOnUse">
				<stop  offset="0.1935" style="stop-color:#EFEFEF"/>
				<stop  offset="0.3387" style="stop-color:#E9E9E9"/>
				<stop  offset="0.6613" style="stop-color:#E7E7E7"/>
				<stop  offset="0.8065" style="stop-color:#ECECED"/>
			</radialGradient>
			<path class="st14" d="M212.8,114.5c15.5,39.5-3.8,84.1-43.3,99.6c-39.5,15.5-84-3.8-99.6-43.3c-15.5-39.5,3.8-84.1,43.3-99.6
				C152.7,55.7,197.3,75.1,212.8,114.5z"/>
			<radialGradient id="SVGID_16_" cx="152.5885" cy="133.7051" r="174.6938" gradientUnits="userSpaceOnUse">
				<stop  offset="0.1935" style="stop-color:#F0F0F1"/>
				<stop  offset="0.3387" style="stop-color:#EAEAEA"/>
				<stop  offset="0.6613" style="stop-color:#E6E6E6"/>
				<stop  offset="0.8065" style="stop-color:#EBEBEB"/>
			</radialGradient>
			<path class="st15" d="M211.2,112.5c16.7,38.6-1.1,83.4-39.7,100c-38.6,16.7-83.3-1.1-100-39.7c-16.7-38.6,1.1-83.4,39.7-100
				C149.8,56.2,194.6,73.9,211.2,112.5z"/>
			<radialGradient id="SVGID_17_" cx="152.8572" cy="137.9593" r="170.8781" gradientUnits="userSpaceOnUse">
				<stop  offset="0.1935" style="stop-color:#F2F2F2"/>
				<stop  offset="0.3387" style="stop-color:#EAEBEB"/>
				<stop  offset="0.6613" style="stop-color:#E5E5E5"/>
				<stop  offset="0.8065" style="stop-color:#EAEAEA"/>
			</radialGradient>
			<path class="st16" d="M209.6,110.5c17.8,37.7,1.6,82.7-36.1,100.4c-37.7,17.8-82.6,1.6-100.4-36.1
				c-17.8-37.7-1.6-82.7,36.1-100.4C146.9,56.7,191.9,72.8,209.6,110.5z"/>
			<radialGradient id="SVGID_18_" cx="153.1329" cy="142.143" r="167.1448" gradientUnits="userSpaceOnUse">
				<stop  offset="0.1935" style="stop-color:#F3F3F3"/>
				<stop  offset="0.3387" style="stop-color:#EBEBEC"/>
				<stop  offset="0.6613" style="stop-color:#E4E4E4"/>
				<stop  offset="0.8065" style="stop-color:#E8E8E8"/>
			</radialGradient>
			<path class="st17" d="M208,108.5c18.9,36.8,4.3,82-32.5,100.8c-36.8,18.9-82,4.3-100.8-32.5C55.9,140,70.4,94.9,107.2,76
				C144,57.1,189.2,71.7,208,108.5z"/>
			<radialGradient id="SVGID_19_" cx="153.4169" cy="146.2698" r="163.5082" gradientUnits="userSpaceOnUse">
				<stop  offset="0.1935" style="stop-color:#F5F4F5"/>
				<stop  offset="0.3387" style="stop-color:#ECECED"/>
				<stop  offset="0.6613" style="stop-color:#E3E3E3"/>
				<stop  offset="0.8065" style="stop-color:#E7E7E7"/>
			</radialGradient>
			<path class="st18" d="M206.4,106.5c20,35.9,7.1,81.3-28.9,101.2c-35.9,20-81.3,7.1-101.2-28.9c-20-35.9-7.1-81.3,28.9-101.2
				C141.1,57.6,186.5,70.6,206.4,106.5z"/>
			<radialGradient id="SVGID_20_" cx="153.7107" cy="150.354" r="159.9821" gradientUnits="userSpaceOnUse">
				<stop  offset="0.1935" style="stop-color:#F6F6F6"/>
				<stop  offset="0.3387" style="stop-color:#EDEDED"/>
				<stop  offset="0.6613" style="stop-color:#E2E3E2"/>
				<stop  offset="0.8065" style="stop-color:#E6E6E6"/>
			</radialGradient>
			<path class="st19" d="M204.8,104.5c21.1,35,9.8,80.6-25.3,101.7c-35,21.1-80.6,9.8-101.6-25.3c-21.1-35-9.8-80.6,25.3-101.7
				C138.2,58.1,183.7,69.4,204.8,104.5z"/>
			<radialGradient id="SVGID_21_" cx="154.016" cy="154.4101" r="156.5812" gradientUnits="userSpaceOnUse">
				<stop  offset="0.1935" style="stop-color:#F7F7F8"/>
				<stop  offset="0.3387" style="stop-color:#EEEEEE"/>
				<stop  offset="0.6613" style="stop-color:#E2E2E1"/>
				<stop  offset="0.8065" style="stop-color:#E4E4E4"/>
			</radialGradient>
			<path class="st20" d="M203.2,102.5c22.2,34.2,12.5,79.9-21.7,102.1c-34.2,22.2-79.9,12.5-102.1-21.7
				C57.3,148.7,67,103,101.2,80.8C135.3,58.6,181,68.3,203.2,102.5z"/>
			<radialGradient id="SVGID_22_" cx="154.334" cy="158.4529" r="153.3207" gradientUnits="userSpaceOnUse">
				<stop  offset="0.1935" style="stop-color:#F9F9F9"/>
				<stop  offset="0.3387" style="stop-color:#EFEFEF"/>
				<stop  offset="0.6613" style="stop-color:#E1E1E1"/>
				<stop  offset="0.8065" style="stop-color:#E3E3E3"/>
			</radialGradient>
			<path class="st21" d="M201.6,100.5c23.3,33.3,15.2,79.2-18,102.5c-33.3,23.3-79.2,15.2-102.5-18c-23.3-33.3-15.2-79.2,18-102.5
				C132.4,59.1,178.3,67.2,201.6,100.5z"/>
			<radialGradient id="SVGID_23_" cx="154.6663" cy="162.4974" r="150.2172" gradientUnits="userSpaceOnUse">
				<stop  offset="0.1935" style="stop-color:#FAFAFA"/>
				<stop  offset="0.3387" style="stop-color:#F0F0F0"/>
				<stop  offset="0.6613" style="stop-color:#E0E0E0"/>
				<stop  offset="0.8065" style="stop-color:#E2E2E1"/>
			</radialGradient>
			<path class="st22" d="M200,98.4c24.4,32.4,18,78.5-14.4,102.9c-32.4,24.4-78.5,18-102.9-14.4c-24.4-32.4-18-78.5,14.4-102.9
				C129.6,59.6,175.6,66.1,200,98.4z"/>
			<radialGradient id="SVGID_24_" cx="155.0142" cy="166.5586" r="147.2894" gradientUnits="userSpaceOnUse">
				<stop  offset="0.1935" style="stop-color:#FBFBFB"/>
				<stop  offset="0.3387" style="stop-color:#F1F1F1"/>
				<stop  offset="0.6613" style="stop-color:#DFDFDF"/>
				<stop  offset="0.8065" style="stop-color:#E0E0E0"/>
			</radialGradient>
			<path class="st23" d="M198.4,96.4c25.5,31.5,20.7,77.8-10.8,103.3c-31.5,25.5-77.8,20.7-103.3-10.8
				c-25.5-31.5-20.7-77.8,10.8-103.3C126.7,60.1,172.9,64.9,198.4,96.4z"/>
			<radialGradient id="SVGID_25_" cx="155.3791" cy="170.6515" r="144.5587" gradientUnits="userSpaceOnUse">
				<stop  offset="0.1935" style="stop-color:#FDFDFD"/>
				<stop  offset="0.3387" style="stop-color:#F2F2F2"/>
				<stop  offset="0.6613" style="stop-color:#DEDEDE"/>
				<stop  offset="0.8065" style="stop-color:#DFDFDF"/>
			</radialGradient>
			<path class="st24" d="M196.8,94.4c26.6,30.6,23.4,77.1-7.2,103.7c-30.6,26.7-77.1,23.4-103.7-7.2c-26.6-30.6-23.4-77.1,7.2-103.7
				C123.8,60.6,170.2,63.8,196.8,94.4z"/>
			<radialGradient id="SVGID_26_" cx="155.7622" cy="174.7911" r="142.0501" gradientUnits="userSpaceOnUse">
				<stop  offset="0.1935" style="stop-color:#FEFEFE"/>
				<stop  offset="0.3387" style="stop-color:#F3F3F3"/>
				<stop  offset="0.6613" style="stop-color:#DDDDDD"/>
				<stop  offset="0.8065" style="stop-color:#DDDEDD"/>
			</radialGradient>
			<path class="st25" d="M195.2,92.4c27.8,29.8,26.1,76.4-3.6,104.1c-29.7,27.8-76.4,26.1-104.1-3.6c-27.8-29.7-26.1-76.4,3.6-104.1
				C120.9,61.1,167.5,62.7,195.2,92.4z"/>
			<radialGradient id="SVGID_27_" cx="156.1647" cy="178.992" r="139.7931" gradientUnits="userSpaceOnUse">
				<stop  offset="0.1935" style="stop-color:#FFFFFF"/>
				<stop  offset="0.3278" style="stop-color:#F4F4F5"/>
				<stop  offset="0.6613" style="stop-color:#DCDCDC"/>
			</radialGradient>
			<path class="st26" d="M193.6,90.4c28.9,28.9,28.9,75.7,0,104.5c-28.9,28.9-75.7,28.9-104.5,0c-28.9-28.9-28.9-75.7,0-104.5
				C118,61.5,164.8,61.5,193.6,90.4z"/>
		</g>
	</g>
</g>
<g id="XMLID_144_">
	
		<image style="overflow:visible;opacity:0.7;" width="530" height="530" xlink:href="1B8CF76E.png"  transform="matrix(0.24 0 0 0.24 84 77.76)">
	</image>
	<g>
		<g>
			<path id="XMLID_47_" class="st27" d="M196.2,135.9c-0.7-27.1-23-48.8-50.5-48.8c-27.1,0-49.3,21.2-50.4,47.9
				c0,0.7-0.1,1.5-0.1,2.2c0,9.5,2.6,18.3,7.2,25.9L93.4,190l27.9-8.9c7.2,4,15.5,6.2,24.4,6.2c27.9,0,50.5-22.4,50.5-50.1
				C196.2,136.8,196.2,136.4,196.2,135.9z M145.7,179.3c-8.6,0-16.6-2.6-23.3-7l-16.3,5.2l5.3-15.6c-5.1-6.9-8.1-15.5-8.1-24.7
				c0-1.4,0.1-2.7,0.2-4.1c2.1-21.3,20.2-38,42.2-38c22.3,0,40.6,17.1,42.3,38.8c0.1,1.1,0.1,2.2,0.1,3.3
				C188.2,160.4,169.1,179.3,145.7,179.3z"/>
			<path id="XMLID_46_" class="st27" d="M167.4,147.3c-1.2-0.6-7.3-3.6-8.5-4c-1.1-0.4-2-0.6-2.8,0.6c-0.8,1.2-3.2,4-3.9,4.8
				c-0.7,0.8-1.4,0.9-2.7,0.3c-1.2-0.6-5.2-1.9-10-6.1c-3.7-3.3-6.2-7.3-6.9-8.5c-0.7-1.2-0.1-1.9,0.5-2.5c0.6-0.5,1.2-1.4,1.8-2.1
				c0.2-0.2,0.3-0.4,0.5-0.6c0.3-0.5,0.5-0.9,0.8-1.5c0.4-0.8,0.2-1.5-0.1-2.2c-0.3-0.6-2.8-6.7-3.8-9.1c-1-2.5-2.1-2-2.8-2
				c-0.7,0-1.6-0.1-2.4-0.1c-0.8,0-2.2,0.3-3.3,1.5c-1.1,1.2-4.3,4.2-4.3,10.2c0,1.4,0.3,2.8,0.6,4.2c1.3,4.3,3.9,7.9,4.4,8.5
				c0.6,0.8,8.6,13.6,21.1,18.5c12.6,4.9,12.6,3.3,14.8,3.1c2.3-0.2,7.3-3,8.4-5.8c1-2.9,1-5.3,0.7-5.8
				C169.5,148.2,168.6,147.9,167.4,147.3z"/>
		</g>
	</g>
</g>
</svg>
