<svg xmlns="http://www.w3.org/2000/svg" viewBox="0 0 216.39 62.01"><defs><style>.cls-1{fill:#424242;}</style></defs><title>Asset 1ldpi</title><g id="Layer_2" data-name="Layer 2"><g id="Layer_1-2" data-name="Layer 1"><path class="cls-1" d="M209.1,44.53l-11.35-4.7,8.3-4.5a5.27,5.27,0,0,0,0-9.27L184.54,14.41,204.17.93a5.27,5.27,0,0,1,8.22,3.74l4,34.39A5.26,5.26,0,0,1,209.1,44.53Z"/><path class="cls-1" d="M197.75,39.83,174.13,52.62A5.27,5.27,0,0,1,166.35,48V13.4a5.28,5.28,0,0,1,7.78-4.64l10.41,5.65-10.12,6.94a5.27,5.27,0,0,0,1,9.21Z"/><path class="cls-1" d="M140.58,14.49V33.44a2.62,2.62,0,0,1-5.24,0V21.11h-6.82V33.44a2.62,2.62,0,0,1-5.24,0V24.58h-6.82v7.69a3.79,3.79,0,0,1-3.79,3.79H94.49A8.52,8.52,0,0,1,86,27.55V14.49H79.16V28.34a7.73,7.73,0,0,1-7.72,7.72H62.8a21.89,21.89,0,0,0-17.39,8.68l-.34.44V34.76h8A9.92,9.92,0,0,0,63,24.85V21.13A10.06,10.06,0,0,0,53,11.08H48.71A10.46,10.46,0,0,0,38.26,21.53v6.41h-.63A28.07,28.07,0,0,0,16.2,37.86l-4,4.75A15.94,15.94,0,0,1,0,48.25v6.81a22.75,22.75,0,0,0,17.37-8l4-4.75a21.26,21.26,0,0,1,16.23-7.51h.63V50.94a4.89,4.89,0,0,0,8.79,2.94l3.8-5a15,15,0,0,1,11.95-6h8.64a14.5,14.5,0,0,0,11.33-5.46,15.33,15.33,0,0,0,11.72,5.46h18.18a10.53,10.53,0,0,0,6.84-2.52,9.38,9.38,0,0,0,12.42.33,9.43,9.43,0,0,0,15.47-7.25V14.49Zm-95.51,7a3.64,3.64,0,0,1,3.64-3.64H53a3.25,3.25,0,0,1,3.24,3.24v3.72a3.09,3.09,0,0,1-3.09,3.09h-8Z"/><polygon class="cls-1" points="63.7 57.19 75.4 57.19 75.4 62.01 82.22 62.01 82.22 50.37 63.7 50.37 63.7 57.19"/></g></g></svg>